<svg xmlns="http://www.w3.org/2000/svg" xmlns:xlink="http://www.w3.org/1999/xlink" width="1920" height="1750" viewBox="0 0 1920 1750">
  <defs>
    <filter id="矩形_1971" x="631.553" y="692.151" width="791" height="843.595" filterUnits="userSpaceOnUse">
      <feOffset dy="3" input="SourceAlpha"/>
      <feGaussianBlur stdDeviation="3" result="blur"/>
      <feFlood flood-opacity="0.161"/>
      <feComposite operator="in" in2="blur"/>
      <feComposite in="SourceGraphic"/>
    </filter>
    <clipPath id="clip-Accordion">
      <rect width="1920" height="1750"/>
    </clipPath>
  </defs>
  <g id="Accordion" clip-path="url(#clip-Accordion)">
    <rect width="1920" height="1750" fill="#fff"/>
    <g id="矩形_1954" data-name="矩形 1954" transform="translate(110 409.698)" fill="none" stroke="#dee2e6" stroke-width="1">
      <rect width="796" height="185" stroke="none"/>
      <rect x="0.5" y="0.5" width="795" height="184" fill="none"/>
    </g>
    <path id="路径_318" data-name="路径 318" d="M0,0H1920V200H0Z" fill="#398260" opacity="0.16"/>
    <text id="Accordion-2" data-name="Accordion" transform="translate(106 131)" fill="#45494d" font-size="75" font-family="SegoeUI-Bold, Segoe UI" font-weight="700"><tspan x="0" y="0">Accordion</tspan></text>
    <line id="直线_508" data-name="直线 508" x2="797.746" transform="translate(1014 287.276)" fill="none" stroke="#dee2e6" stroke-width="1"/>
    <text id="Default" transform="translate(129.484 328.698)" fill="#676a6c" font-size="24" font-family="SegoeUI, Segoe UI"><tspan x="0" y="0">Default</tspan></text>
    <text id="Hover" transform="translate(129.484 389.698)" fill="#676a6c" font-size="24" font-family="SegoeUI, Segoe UI"><tspan x="0" y="0">Hover</tspan></text>
    <text id="Click" transform="translate(130.5 450.812)" fill="#676a6c" font-size="24" font-family="SegoeUI, Segoe UI"><tspan x="0" y="0">Click</tspan></text>
    <line id="直线_509" data-name="直线 509" x2="795.891" transform="translate(110 348.333)" fill="none" stroke="#dee2e6" stroke-width="1"/>
    <line id="直线_512" data-name="直线 512" x2="795.891" transform="translate(110 409.39)" fill="none" stroke="#dee2e6" stroke-width="1"/>
    <line id="直线_510" data-name="直线 510" x2="795.891" transform="translate(110 287.276)" fill="none" stroke="#dee2e6" stroke-width="1"/>
    <path id="angle-down" d="M19.405,12.749a.6.6,0,0,1-.191.439l-8.89,8.89a.6.6,0,0,1-.878,0l-8.89-8.89a.6.6,0,0,1,0-.878l.954-.954a.6.6,0,0,1,.878,0l7.5,7.5,7.5-7.5a.6.6,0,0,1,.878,0l.954.954A.6.6,0,0,1,19.405,12.749Z" transform="translate(865.635 304.884)" fill="#676a6c"/>
    <path id="angle-down-2" data-name="angle-down" d="M19.405,12.749a.6.6,0,0,1-.191.439l-8.89,8.89a.6.6,0,0,1-.878,0l-8.89-8.89a.6.6,0,0,1,0-.878l.954-.954a.6.6,0,0,1,.878,0l7.5,7.5,7.5-7.5a.6.6,0,0,1,.878,0l.954.954A.6.6,0,0,1,19.405,12.749Z" transform="translate(865.635 365.94)" fill="#676a6c"/>
    <path id="angle-down-3" data-name="angle-down" d="M19.405,12.749a.6.6,0,0,1-.191.439l-8.89,8.89a.6.6,0,0,1-.878,0l-8.89-8.89a.6.6,0,0,1,0-.878l.954-.954a.6.6,0,0,1,.878,0l7.5,7.5,7.5-7.5a.6.6,0,0,1,.878,0l.954.954A.6.6,0,0,1,19.405,12.749Z" transform="translate(885.404 460.432) rotate(180)" fill="#676a6c"/>
    <rect id="矩形_1953" data-name="矩形 1953" width="797.847" height="63.902" transform="translate(1014 347.519)" fill="#f0f6fb"/>
    <g id="矩形_1952" data-name="矩形 1952" transform="translate(1014 409.698)" fill="none" stroke="#006cd0" stroke-width="1">
      <rect width="797.847" height="184" stroke="none"/>
      <rect x="0.5" y="0.5" width="796.847" height="183" fill="none"/>
    </g>
    <text id="Default-2" data-name="Default" transform="translate(1030.746 329.698)" fill="#006cd0" font-size="24" font-family="SegoeUI, Segoe UI"><tspan x="0" y="0">Default</tspan></text>
    <text id="Hover-2" data-name="Hover" transform="translate(1031 385.698)" fill="#006cd0" font-size="24" font-family="SegoeUI, Segoe UI"><tspan x="0" y="0">Hover</tspan></text>
    <text id="Click-2" data-name="Click" transform="translate(1031 450.698)" fill="#006cd0" font-size="24" font-family="SegoeUI, Segoe UI"><tspan x="0" y="0">Click</tspan></text>
    <path id="angle-down-4" data-name="angle-down" d="M20.743,12.746a.583.583,0,0,1-.2.438l-9.515,8.873a.675.675,0,0,1-.939,0L.57,13.184a.572.572,0,0,1,0-.876l1.021-.952a.675.675,0,0,1,.939,0l8.024,7.483,8.024-7.483a.675.675,0,0,1,.939,0l1.021.952A.583.583,0,0,1,20.743,12.746Z" transform="translate(1769.085 302.532)" fill="#006cd0"/>
    <path id="angle-down-5" data-name="angle-down" d="M20.743,12.746a.583.583,0,0,1-.2.438l-9.515,8.873a.675.675,0,0,1-.939,0L.57,13.184a.572.572,0,0,1,0-.876l1.021-.952a.675.675,0,0,1,.939,0l8.024,7.483,8.024-7.483a.675.675,0,0,1,.939,0l1.021.952A.583.583,0,0,1,20.743,12.746Z" transform="translate(1769.339 361.532)" fill="#006cd0"/>
    <path id="angle-down-6" data-name="angle-down" d="M20.377,1.58a.583.583,0,0,1-.2.438l-9.515,8.873a.675.675,0,0,1-.939,0L.2,2.018a.572.572,0,0,1,0-.876L1.225.19a.675.675,0,0,1,.939,0l8.024,7.483L18.212.19a.675.675,0,0,1,.939,0l1.021.952A.583.583,0,0,1,20.377,1.58Z" transform="translate(1790.083 445.779) rotate(180)" fill="#006cd0"/>
    <rect id="矩形_1946" data-name="矩形 1946" width="755.85" height="32" transform="translate(1033.979 487.78)" fill="#dee2e6"/>
    <g id="矩形_1947" data-name="矩形 1947" transform="translate(1033.979 519.78)" fill="#fff" stroke="#adacbc" stroke-width="1">
      <rect width="755.85" height="37" stroke="none"/>
      <rect x="0.5" y="0.5" width="754.85" height="36" fill="none"/>
    </g>
    <text id="起始時間" transform="translate(1062.932 510.78)" fill="#676a6c" font-size="16" font-family="YuGothicUI-Bold, Yu Gothic UI" font-weight="700"><tspan x="0" y="0">起始時間</tspan></text>
    <text id="迄時時間" transform="translate(1375.61 510.78)" fill="#676a6c" font-size="16" font-family="YuGothicUI-Bold, Yu Gothic UI" font-weight="700"><tspan x="0" y="0">迄時時間</tspan></text>
    <text id="異動狀態" transform="translate(1687.959 510.78)" fill="#676a6c" font-size="16" font-family="YuGothicUI-Bold, Yu Gothic UI" font-weight="700"><tspan x="0" y="0">異動狀態</tspan></text>
    <g id="组_2981" data-name="组 2981" transform="translate(0 -11833.785)">
      <rect id="矩形_1962" data-name="矩形 1962" width="20.232" height="60.748" transform="translate(885.104 12243.175)" fill="#ffefc9" opacity="0.46"/>
      <rect id="矩形_1987" data-name="矩形 1987" width="20.232" height="60.748" transform="translate(110 12243.118)" fill="#ffefc9" opacity="0.46"/>
      <rect id="矩形_1959" data-name="矩形 1959" width="17.47" height="789.412" transform="translate(899.412 12286.453) rotate(90)" fill="#ffefc9" opacity="0.46"/>
      <rect id="矩形_1961" data-name="矩形 1961" width="17.47" height="796" transform="translate(906 12243.175) rotate(90)" fill="#ffefc9" opacity="0.46"/>
    </g>
    <g id="组_2982" data-name="组 2982" transform="translate(0 -11833.785)">
      <rect id="矩形_1966" data-name="矩形 1966" width="20.232" height="124.561" transform="translate(885.104 12303.923)" fill="#e7f7e4"/>
      <rect id="矩形_1988" data-name="矩形 1988" width="20.232" height="124.561" transform="translate(110 12303.923)" fill="#e7f7e4"/>
      <rect id="矩形_1963" data-name="矩形 1963" width="17.47" height="796" transform="translate(906 12411.015) rotate(90)" fill="#e7f7e4"/>
      <rect id="矩形_1965" data-name="矩形 1965" width="17.47" height="796" transform="translate(906 12304.231) rotate(90)" fill="#e7f7e4"/>
    </g>
    <rect id="矩形_1967" data-name="矩形 1967" width="160" height="20" transform="translate(110 623.043)" fill="#fff8e6"/>
    <rect id="矩形_1968" data-name="矩形 1968" width="229" height="20" transform="translate(339.002 623.043)" fill="#e7f7e4"/>
    <text id="padding:_9px_12px" data-name="padding: 9px 12px" transform="translate(119.367 637.543)" fill="#676a6c" font-size="20" font-family="SegoeUI, Segoe UI"><tspan x="0" y="0">padding: 9px 12px</tspan></text>
    <text id="padding:_8px_12px_12px" data-name="padding: 8px 12px 12px" transform="translate(344 637.543)" fill="#676a6c" font-size="20" font-family="SegoeUI, Segoe UI"><tspan x="0" y="0">padding: 8px 12px 12px</tspan></text>
    <g id="矩形_1969" data-name="矩形 1969" transform="translate(611.635 621.543)" fill="none" stroke="#cfd1d3" stroke-width="1">
      <rect width="45" height="20" stroke="none"/>
      <rect x="0.5" y="0.5" width="44" height="19" fill="none"/>
    </g>
    <text id="Text_font-size_1rem_" data-name="Text   font-size：1rem；" transform="translate(614.689 637.543)" fill="#676a6c" font-size="20" font-family="SegoeUI, Segoe UI"><tspan x="0" y="0" xml:space="preserve">Text   font-size</tspan><tspan y="0" font-family="YuGothicUI-Regular, Yu Gothic UI">：</tspan><tspan y="0">1rem</tspan><tspan y="0" font-family="YuGothicUI-Regular, Yu Gothic UI">；</tspan></text>
    <line id="直线_507" data-name="直线 507" x2="797.746" transform="translate(1014 348.276)" fill="none" stroke="#dee2e6" stroke-width="1"/>
    <g id="组_2973" data-name="组 2973" transform="translate(988.749 -5187.946)">
      <rect id="矩形_1934" data-name="矩形 1934" width="4" height="9" transform="translate(446.146 5564.696)" fill="#fff"/>
      <path id="hand-pointer-o" d="M8.354,1.671a1.61,1.61,0,0,0-1.181.489,1.61,1.61,0,0,0-.489,1.182v11.7L4.712,12.4a1.674,1.674,0,0,0-1.4-.7,1.563,1.563,0,0,0-1.162.5,1.665,1.665,0,0,0-.144,2.18l5.012,6.684a1.575,1.575,0,0,0,1.331.666h9.372a.824.824,0,0,0,.516-.176.781.781,0,0,0,.294-.45l1.2-4.8a10.407,10.407,0,0,0,.313-2.532V10.926A1.311,1.311,0,0,0,19.683,10a1.172,1.172,0,0,0-.888-.392,1.249,1.249,0,0,0-1.253,1.253h-.418v-.8A1.483,1.483,0,0,0,16.707,9a1.384,1.384,0,0,0-1.044-.437A1.471,1.471,0,0,0,14.2,10.026v.836h-.418V9.687A1.741,1.741,0,0,0,13.3,8.453a1.569,1.569,0,0,0-1.186-.517,1.672,1.672,0,0,0-1.671,1.671v1.253h-.418V3.42a1.741,1.741,0,0,0-.483-1.233A1.566,1.566,0,0,0,8.354,1.671ZM8.354,0a3.161,3.161,0,0,1,2.369,1.012A3.358,3.358,0,0,1,11.7,3.42V6.292q.287-.026.418-.026a3.205,3.205,0,0,1,2.258.9,3.132,3.132,0,0,1,1.292-.274,2.956,2.956,0,0,1,2.4,1.136,2.892,2.892,0,0,1,.731-.092,2.771,2.771,0,0,1,2.075.881,2.932,2.932,0,0,1,.849,2.108v2.832a11.749,11.749,0,0,1-.366,2.937l-1.2,4.8a2.5,2.5,0,0,1-2.428,1.893H8.354a3.277,3.277,0,0,1-1.494-.359,3.384,3.384,0,0,1-1.181-.972L.666,15.377A3.352,3.352,0,0,1,.973,11.01a3.171,3.171,0,0,1,2.343-.985,3.267,3.267,0,0,1,1.7.457V3.342A3.22,3.22,0,0,1,5.992.979,3.219,3.219,0,0,1,8.354,0Zm1.671,18.379V13.367H9.607v5.012Zm3.342,0V13.367h-.418v5.012Zm3.342,0V13.367H16.29v5.012Z" transform="translate(440 5563.646)" fill="#676a6c"/>
    </g>
    <rect id="矩形_1970" data-name="矩形 1970" width="798" height="874.595" transform="translate(627.553 675.151)" fill="#adacbc" opacity="0.49"/>
    <g transform="matrix(1, 0, 0, 1, 0, 0)" filter="url(#矩形_1971)">
      <rect id="矩形_1971-2" data-name="矩形 1971" width="773" height="825.595" rx="18" transform="translate(640.55 698.15)" fill="#fff"/>
    </g>
    <path id="联合_9" data-name="联合 9" d="M0,52V15A15,15,0,0,1,15,0H758a15,15,0,0,1,15,15V52Z" transform="translate(640.553 698.151)" fill="#eaf5fb"/>
    <text id="Title" transform="translate(661.553 734.151)" fill="#006cd0" font-size="23" font-family="SegoeUI, Segoe UI"><tspan x="0" y="0">Title</tspan></text>
    <line id="直线_513" data-name="直线 513" x2="769.917" transform="translate(642.865 749.123)" fill="none" stroke="#dee2e6" stroke-width="1"/>
    <g id="下拉選單" transform="translate(672.553 775.002)">
      <text id="仲介公司" transform="translate(0 19)" fill="#707070" font-size="18" font-family="YuGothicUI-Regular, Yu Gothic UI"><tspan x="0" y="0">仲介公司</tspan></text>
      <g id="矩形_1725" data-name="矩形 1725" transform="translate(0 30.769)" fill="#fff" stroke="#dee2e6" stroke-width="1">
        <rect width="346" height="55.464" rx="8" stroke="none"/>
        <rect x="0.5" y="0.5" width="345" height="54.464" rx="7.5" fill="none"/>
      </g>
      <text id="請選擇..." transform="translate(12.762 64.77)" fill="#dee2e6" font-size="18" font-family="YuGothicUI-Regular, Yu Gothic UI"><tspan x="0" y="0">請選擇</tspan><tspan y="0" font-family="SegoeUI, Segoe UI">...</tspan></text>
      <g id="chevron-down" transform="translate(314.2 54.779)">
        <path id="caret-down" d="M13.236,11.627a.8.8,0,0,1-.245.582L7.2,18a.812.812,0,0,1-1.164,0L.245,12.209a.812.812,0,0,1,0-1.164A.793.793,0,0,1,.827,10.8H12.408a.838.838,0,0,1,.827.827Z" transform="translate(0 -10.8)" fill="#676a6c"/>
      </g>
    </g>
    <g id="下拉選單-2" data-name="下拉選單" transform="translate(1029.695 775.002)">
      <text id="仲介公司-2" data-name="仲介公司" transform="translate(0 19)" fill="#707070" font-size="18" font-family="YuGothicUI-Regular, Yu Gothic UI"><tspan x="0" y="0">仲介公司</tspan></text>
      <g id="矩形_1725-2" data-name="矩形 1725" transform="translate(0 30.769)" fill="#fff" stroke="#dee2e6" stroke-width="1">
        <rect width="351.988" height="55.464" rx="8" stroke="none"/>
        <rect x="0.5" y="0.5" width="350.988" height="54.464" rx="7.5" fill="none"/>
      </g>
      <text id="請選擇...-2" data-name="請選擇..." transform="translate(12.762 64.77)" fill="#dee2e6" font-size="18" font-family="YuGothicUI-Regular, Yu Gothic UI"><tspan x="0" y="0">請選擇</tspan><tspan y="0" font-family="SegoeUI, Segoe UI">...</tspan></text>
      <g id="chevron-down-2" data-name="chevron-down" transform="translate(320.188 54.779)">
        <path id="caret-down-2" data-name="caret-down" d="M13.236,11.627a.8.8,0,0,1-.245.582L7.2,18a.812.812,0,0,1-1.164,0L.245,12.209a.812.812,0,0,1,0-1.164A.793.793,0,0,1,.827,10.8H12.408a.838.838,0,0,1,.827.827Z" transform="translate(0 -10.8)" fill="#676a6c"/>
      </g>
    </g>
  </g>
</svg>
