<svg xmlns="http://www.w3.org/2000/svg" xmlns:xlink="http://www.w3.org/1999/xlink" width="1920" height="1396" viewBox="0 0 1920 1396">
  <defs>
    <filter id="联合_5" x="1273.592" y="821.442" width="371.998" height="101" filterUnits="userSpaceOnUse">
      <feOffset dy="3" input="SourceAlpha"/>
      <feGaussianBlur stdDeviation="3.5" result="blur"/>
      <feFlood flood-opacity="0.302"/>
      <feComposite operator="in" in2="blur"/>
      <feComposite in="SourceGraphic"/>
    </filter>
    <clipPath id="clip-Alert_Tooltips">
      <rect width="1920" height="1396"/>
    </clipPath>
  </defs>
  <g id="Alert_Tooltips" data-name="Alert &amp; Tooltips" clip-path="url(#clip-Alert_Tooltips)">
    <rect width="1920" height="1396" fill="#fff"/>
    <rect id="矩形_1878" data-name="矩形 1878" width="1920" height="200" fill="#dbf0c3" opacity="0.46"/>
    <text id="Alert_Tooltips-2" data-name="Alert &amp; Tooltips" transform="translate(106 131)" fill="#45494d" font-size="75" font-family="SegoeUI-Bold, Segoe UI" font-weight="700"><tspan x="0" y="0">Alert &amp; Tooltips</tspan></text>
    <g id="矩形_1882" data-name="矩形 1882" transform="translate(110 459.939)" fill="#fff" stroke="#adacbc" stroke-width="2">
      <rect width="796" height="92" rx="18" stroke="none"/>
      <rect x="1" y="1" width="794" height="90" rx="17" fill="none"/>
    </g>
    <g id="矩形_1886" data-name="矩形 1886" transform="translate(1014 579.275)" fill="#f8d7da" stroke="#721c24" stroke-width="2">
      <rect width="796" height="92" rx="18" stroke="none"/>
      <rect x="1" y="1" width="794" height="90" rx="17" fill="none"/>
    </g>
    <g id="路径_316" data-name="路径 316" transform="translate(1014 338.275)" fill="#d4edda">
      <path d="M 778 91 L 18 91 C 13.45909976959229 91 9.190099716186523 89.23169708251953 5.979199886322021 86.02079772949219 C 2.76830005645752 82.80989837646484 1 78.54090118408203 1 74 L 1 18 C 1 13.45909976959229 2.76830005645752 9.190099716186523 5.979199886322021 5.979199886322021 C 9.190099716186523 2.76830005645752 13.45909976959229 1 18 1 L 778 1 C 782.5408935546875 1 786.8098754882812 2.76830005645752 790.0208129882812 5.979199886322021 C 793.231689453125 9.190099716186523 795 13.45909976959229 795 18 L 795 74 C 795 78.54090118408203 793.231689453125 82.80989837646484 790.0208129882812 86.02079772949219 C 786.8098754882812 89.23169708251953 782.5408935546875 91 778 91 Z" stroke="none"/>
      <path d="M 18 2 C 13.726318359375 2 9.70831298828125 3.664299011230469 6.686279296875 6.686302185058594 C 3.664306640625 9.708297729492188 2 13.72630310058594 2 18 L 2 74 C 2 78.27369689941406 3.664306640625 82.29170227050781 6.686279296875 85.31369781494141 C 9.70831298828125 88.33570098876953 13.726318359375 90 18 90 L 778 90 C 782.273681640625 90 786.2916870117188 88.33570098876953 789.313720703125 85.31369781494141 C 792.335693359375 82.29170227050781 794 78.27369689941406 794 74 L 794 18 C 794 13.72630310058594 792.335693359375 9.708297729492188 789.313720703125 6.686302185058594 C 786.2916870117188 3.664299011230469 782.273681640625 2 778 2 L 18 2 M 18 0 L 778 0 C 787.9411010742188 0 796 8.05889892578125 796 18 L 796 74 C 796 83.94110107421875 787.9411010742188 92 778 92 L 18 92 C 8.05889892578125 92 0 83.94110107421875 0 74 L 0 18 C 0 8.05889892578125 8.05889892578125 0 18 0 Z" stroke="none" fill="#155724"/>
    </g>
    <g id="矩形_1888" data-name="矩形 1888" transform="translate(1016 458)" fill="#fff3cd" stroke="#856404" stroke-width="2">
      <rect width="796" height="92" rx="18" stroke="none"/>
      <rect x="1" y="1" width="794" height="90" rx="17" fill="none"/>
    </g>
    <g id="矩形_1880" data-name="矩形 1880" transform="translate(1192.913 921.387)" fill="#f0f4f7" stroke="#e8eef3" stroke-width="1">
      <rect width="47.183" height="48.531" rx="5" stroke="none"/>
      <rect x="0.5" y="0.5" width="46.183" height="47.531" rx="4.5" fill="none"/>
    </g>
    <g id="矩形_1892" data-name="矩形 1892" transform="translate(286.998 1004.205)" fill="#f0f4f7" stroke="#e8eef3" stroke-width="1">
      <rect width="47.183" height="48.531" rx="5" stroke="none"/>
      <rect x="0.5" y="0.5" width="46.183" height="47.531" rx="4.5" fill="none"/>
    </g>
    <text id="文字文字" transform="translate(1264.362 959.943)" fill="#707070" font-size="34" font-family="YuGothicUI-Regular, Yu Gothic UI"><tspan x="0" y="0">文字文字</tspan></text>
    <text id="文字文字-2" data-name="文字文字" transform="translate(358.447 1042.762)" fill="#707070" font-size="34" font-family="YuGothicUI-Regular, Yu Gothic UI"><tspan x="0" y="0">文字文字</tspan></text>
    <path id="question-circle" d="M17.543,24.435V20.675a.6.6,0,0,0-.627-.627H13.157a.6.6,0,0,0-.627.627v3.759a.6.6,0,0,0,.627.627h3.759a.6.6,0,0,0,.627-.627Zm5.012-13.157a5.251,5.251,0,0,0-1.087-3.191,7.624,7.624,0,0,0-6.04-3.074,8,8,0,0,0-7.264,4.17A.559.559,0,0,0,8.322,10l2.585,1.958a.551.551,0,0,0,.372.118.578.578,0,0,0,.49-.235,9.734,9.734,0,0,1,1.684-1.8,2.849,2.849,0,0,1,1.684-.47,2.869,2.869,0,0,1,1.674.509,1.425,1.425,0,0,1,.734,1.155,1.755,1.755,0,0,1-.392,1.195,3.966,3.966,0,0,1-1.332.881,6.7,6.7,0,0,0-2.261,1.693,3.631,3.631,0,0,0-1.029,2.457v.705a.6.6,0,0,0,.627.627h3.759a.6.6,0,0,0,.627-.627,1.864,1.864,0,0,1,.421-.969,3.3,3.3,0,0,1,1.067-.969q.627-.353.959-.558a8.286,8.286,0,0,0,.9-.685,4.531,4.531,0,0,0,.871-.94,5.182,5.182,0,0,0,.548-1.185,4.925,4.925,0,0,0,.245-1.586Zm7.518,3.759a14.71,14.71,0,0,1-2.017,7.548,14.967,14.967,0,0,1-5.473,5.473,14.71,14.71,0,0,1-7.548,2.017,14.71,14.71,0,0,1-7.548-2.017,14.967,14.967,0,0,1-5.473-5.473A14.71,14.71,0,0,1,0,15.037,14.71,14.71,0,0,1,2.017,7.489,14.967,14.967,0,0,1,7.489,2.017,14.71,14.71,0,0,1,15.037,0a14.711,14.711,0,0,1,7.548,2.017,14.967,14.967,0,0,1,5.473,5.473A14.71,14.71,0,0,1,30.074,15.037Z" transform="translate(1425.553 933.834)" fill="#676a6c"/>
    <path id="question-circle-2" data-name="question-circle" d="M17.543,24.435V20.675a.6.6,0,0,0-.627-.627H13.157a.6.6,0,0,0-.627.627v3.759a.6.6,0,0,0,.627.627h3.759a.6.6,0,0,0,.627-.627Zm5.012-13.157a5.251,5.251,0,0,0-1.087-3.191,7.624,7.624,0,0,0-6.04-3.074,8,8,0,0,0-7.264,4.17A.559.559,0,0,0,8.322,10l2.585,1.958a.551.551,0,0,0,.372.118.578.578,0,0,0,.49-.235,9.734,9.734,0,0,1,1.684-1.8,2.849,2.849,0,0,1,1.684-.47,2.869,2.869,0,0,1,1.674.509,1.425,1.425,0,0,1,.734,1.155,1.755,1.755,0,0,1-.392,1.195,3.966,3.966,0,0,1-1.332.881,6.7,6.7,0,0,0-2.261,1.693,3.631,3.631,0,0,0-1.029,2.457v.705a.6.6,0,0,0,.627.627h3.759a.6.6,0,0,0,.627-.627,1.864,1.864,0,0,1,.421-.969,3.3,3.3,0,0,1,1.067-.969q.627-.353.959-.558a8.286,8.286,0,0,0,.9-.685,4.531,4.531,0,0,0,.871-.94,5.182,5.182,0,0,0,.548-1.185,4.925,4.925,0,0,0,.245-1.586Zm7.518,3.759a14.71,14.71,0,0,1-2.017,7.548,14.967,14.967,0,0,1-5.473,5.473,14.71,14.71,0,0,1-7.548,2.017,14.71,14.71,0,0,1-7.548-2.017,14.967,14.967,0,0,1-5.473-5.473A14.71,14.71,0,0,1,0,15.037,14.71,14.71,0,0,1,2.017,7.489,14.967,14.967,0,0,1,7.489,2.017,14.71,14.71,0,0,1,15.037,0a14.711,14.711,0,0,1,7.548,2.017,14.967,14.967,0,0,1,5.473,5.473A14.71,14.71,0,0,1,30.074,15.037Z" transform="translate(503.638 1016.652)" fill="#676a6c"/>
    <path id="hand-pointer-o" d="M8.424,1.684a1.623,1.623,0,0,0-1.191.493A1.624,1.624,0,0,0,6.739,3.37V15.163L4.751,12.5a1.688,1.688,0,0,0-1.409-.711,1.576,1.576,0,0,0-1.171.5,1.679,1.679,0,0,0-.145,2.2L7.081,21.23a1.589,1.589,0,0,0,1.342.672h9.45a.831.831,0,0,0,.52-.178.788.788,0,0,0,.3-.454L19.9,16.427a10.494,10.494,0,0,0,.316-2.553V11.017a1.322,1.322,0,0,0-.369-.934,1.182,1.182,0,0,0-.895-.4,1.259,1.259,0,0,0-1.264,1.264h-.421v-.8a1.5,1.5,0,0,0-.421-1.073,1.4,1.4,0,0,0-1.053-.441,1.483,1.483,0,0,0-1.474,1.474v.843H13.9V9.767a1.755,1.755,0,0,0-.487-1.244A1.582,1.582,0,0,0,12.215,8a1.686,1.686,0,0,0-1.685,1.685v1.264h-.421v-7.5A1.755,1.755,0,0,0,9.621,2.2,1.579,1.579,0,0,0,8.424,1.684ZM8.424,0a3.187,3.187,0,0,1,2.389,1.02,3.386,3.386,0,0,1,.981,2.428v2.9q.29-.026.421-.026a3.232,3.232,0,0,1,2.277.908,3.158,3.158,0,0,1,1.3-.276,2.98,2.98,0,0,1,2.422,1.145A2.916,2.916,0,0,1,18.953,8a2.794,2.794,0,0,1,2.093.888,2.956,2.956,0,0,1,.856,2.125v2.856a11.846,11.846,0,0,1-.369,2.961l-1.211,4.844a2.521,2.521,0,0,1-2.448,1.909H8.424a3.3,3.3,0,0,1-1.507-.362,3.413,3.413,0,0,1-1.191-.98L.672,15.5a3.38,3.38,0,0,1,.309-4.4,3.2,3.2,0,0,1,2.363-.993,3.294,3.294,0,0,1,1.711.461V3.37A3.246,3.246,0,0,1,6.042.987,3.246,3.246,0,0,1,8.424,0Zm1.684,18.532V13.478H9.687v5.054Zm3.37,0V13.478h-.421v5.054Zm3.37,0V13.478h-.421v5.054Z" transform="translate(1447.012 957.15)" fill="#676a6c"/>
    <g id="联合_6" data-name="联合 6" transform="translate(-20581.998 -73.588)" fill="none">
      <path d="M21094.088,1057.086H20930a3,3,0,0,1-3-3V980a3,3,0,0,1,3-3h395.586a3,3,0,0,1,3,3v74.088a3,3,0,0,1-3,3h-207.568l-11.965,11.444Z" stroke="none"/>
      <path d="M 21106.052734375 1067.146850585938 L 21117.6171875 1056.08642578125 L 21325.5859375 1056.08642578125 C 21326.6875 1056.08642578125 21327.583984375 1055.190307617188 21327.583984375 1054.0888671875 L 21327.583984375 980.001220703125 C 21327.583984375 978.8968505859375 21326.6875 977.9983520507812 21325.5859375 977.9983520507812 L 20930 977.9983520507812 C 20928.896484375 977.9983520507812 20927.998046875 978.8968505859375 20927.998046875 980.001220703125 L 20927.998046875 1054.0888671875 C 20927.998046875 1055.190307617188 20928.896484375 1056.08642578125 20930 1056.08642578125 L 21094.48828125 1056.08642578125 L 21094.779296875 1056.36376953125 L 21106.052734375 1067.146850585938 M 21106.052734375 1068.530639648438 L 21094.087890625 1057.08642578125 L 20930 1057.08642578125 C 20928.341796875 1057.08642578125 20926.998046875 1055.742919921875 20926.998046875 1054.0888671875 L 20926.998046875 980.001220703125 C 20926.998046875 978.3418579101562 20928.341796875 976.9983520507812 20930 976.9983520507812 L 21325.5859375 976.9983520507812 C 21327.240234375 976.9983520507812 21328.583984375 978.3418579101562 21328.583984375 980.001220703125 L 21328.583984375 1054.0888671875 C 21328.583984375 1055.742919921875 21327.240234375 1057.08642578125 21325.5859375 1057.08642578125 L 21118.017578125 1057.08642578125 L 21106.052734375 1068.530639648438 Z" stroke="none" fill="#707070"/>
    </g>
    <g transform="matrix(1, 0, 0, 1, 0, 0)" filter="url(#联合_5)">
      <g id="联合_5-2" data-name="联合 5" transform="translate(-19642.91 -148.06)" fill="#676a6c">
        <path d="M 21083.498046875 1056.306518554688 L 21073.396484375 1046.640625 L 21073.251953125 1046.501831054688 L 21073.05078125 1046.501831054688 L 20929 1046.501831054688 C 20928.173828125 1046.501831054688 20927.501953125 1045.827880859375 20927.501953125 1044.999389648438 L 20927.501953125 979.0013427734375 C 20927.501953125 978.1728515625 20928.173828125 977.4988403320312 20929 977.4988403320312 L 21275.998046875 977.4988403320312 C 21276.826171875 977.4988403320312 21277.5 978.1728515625 21277.5 979.0013427734375 L 21277.5 1044.999389648438 C 21277.5 1045.827880859375 21276.826171875 1046.501831054688 21275.998046875 1046.501831054688 L 21093.951171875 1046.501831054688 L 21093.75 1046.501831054688 L 21093.60546875 1046.640502929688 L 21083.498046875 1056.306518554688 Z" stroke="none"/>
        <path d="M 21083.498046875 1055.614624023438 L 21093.55078125 1046.001831054688 L 21275.998046875 1046.001831054688 C 21276.55078125 1046.001831054688 21277 1045.552124023438 21277 1044.999389648438 L 21277 979.0013427734375 C 21277 978.4485473632812 21276.55078125 977.9988403320312 21275.998046875 977.9988403320312 L 20929 977.9988403320312 C 20928.44921875 977.9988403320312 20928.001953125 978.4485473632812 20928.001953125 979.0013427734375 L 20928.001953125 1044.999389648438 C 20928.001953125 1045.552124023438 20928.44921875 1046.001831054688 20929 1046.001831054688 L 21073.451171875 1046.001831054688 L 21073.7421875 1046.279296875 L 21083.498046875 1055.614624023438 M 21083.498046875 1056.99853515625 L 21073.05078125 1047.001831054688 L 20929 1047.001831054688 C 20927.89453125 1047.001831054688 20927.001953125 1046.104736328125 20927.001953125 1044.999389648438 L 20927.001953125 979.0013427734375 C 20927.001953125 977.8959350585938 20927.89453125 976.9988403320312 20929 976.9988403320312 L 21275.998046875 976.9988403320312 C 21277.103515625 976.9988403320312 21278 977.8959350585938 21278 979.0013427734375 L 21278 1044.999389648438 C 21278 1046.104736328125 21277.103515625 1047.001831054688 21275.998046875 1047.001831054688 L 21093.951171875 1047.001831054688 L 21083.498046875 1056.99853515625 Z" stroke="none" fill="#707070"/>
      </g>
    </g>
    <text id="文字文字-3" data-name="文字文字" transform="translate(1304.589 875.943)" fill="#fff" font-size="34" font-family="YuGothicUI-Regular, Yu Gothic UI"><tspan x="0" y="0">文字文字</tspan></text>
    <line id="直线_492" data-name="直线 492" y2="114" transform="translate(728.219 890.205)" fill="none" stroke="#cfd1d3" stroke-width="1"/>
    <rect id="矩形_1890" data-name="矩形 1890" width="237" height="20" transform="translate(114 420.939)" fill="#ffefc9"/>
    <rect id="矩形_1907" data-name="矩形 1907" width="171.088" height="20" transform="translate(344.998 855)" fill="#ffefc9"/>
    <g id="组_2943" data-name="组 2943" transform="translate(95.379 420.939)">
      <text id="padding:_.75rem_1.25rem" data-name="padding: .75rem 1.25rem" transform="translate(26.62 16)" fill="#676a6c" font-size="20" font-family="SegoeUI, Segoe UI"><tspan x="0" y="0">padding: .75rem 1.25rem</tspan></text>
    </g>
    <g id="组_2944" data-name="组 2944" transform="translate(328.495 855)">
      <text id="padding_.75rem" data-name="padding：.75rem" transform="translate(26.62 16)" fill="#676a6c" font-size="20" font-family="SegoeUI, Segoe UI"><tspan x="0" y="0">padding</tspan><tspan y="0" font-family="YuGothicUI-Regular, Yu Gothic UI">：</tspan><tspan y="0">.75rem</tspan></text>
    </g>
    <text id="Success_Message" data-name="Success Message" transform="translate(1043 396.275)" fill="#155724" font-size="29" font-family="SegoeUI-Bold, Segoe UI" font-weight="700"><tspan x="0" y="0">Success</tspan><tspan y="0" xml:space="preserve" font-family="SegoeUI, Segoe UI" font-weight="400"> Message</tspan></text>
    <text id="Warning_Message" data-name="Warning Message" transform="translate(1047.092 516)" fill="#856404" font-size="29" font-family="SegoeUI-Bold, Segoe UI" font-weight="700"><tspan x="0" y="0">Warning </tspan><tspan y="0" font-family="SegoeUI, Segoe UI" font-weight="400">Message</tspan></text>
    <text id="Error_Message" data-name="Error Message" transform="translate(1043 637.275)" fill="#721c24" font-size="29" font-family="SegoeUI-Bold, Segoe UI" font-weight="700"><tspan x="0" y="0">Error </tspan><tspan y="0" font-family="SegoeUI, Segoe UI" font-weight="400">Message</tspan></text>
    <path id="路径_315" data-name="路径 315" d="M.9,14.763S-4.1,3.177,9.436,0" transform="translate(914.146 456.717) rotate(101)" fill="none" stroke="#676a6c" stroke-width="3"/>
    <path id="路径_317" data-name="路径 317" d="M.9,14.763S-4.1,3.177,9.436,0" transform="translate(756.146 898.736) rotate(101)" fill="none" stroke="#676a6c" stroke-width="3"/>
    <text id="border-radius_5px" data-name="border-radius：5px" transform="translate(733 437.439)" fill="#676a6c" font-size="20" font-family="SegoeUI, Segoe UI"><tspan x="0" y="0">border-radius</tspan><tspan y="0" font-family="YuGothicUI-Regular, Yu Gothic UI">：</tspan><tspan y="0">5px</tspan></text>
    <text id="border-radius_2px" data-name="border-radius：2px" transform="translate(733 883.5)" fill="#676a6c" font-size="20" font-family="SegoeUI, Segoe UI"><tspan x="0" y="0">border-radius</tspan><tspan y="0" font-family="YuGothicUI-Regular, Yu Gothic UI">：</tspan><tspan y="0">2px</tspan></text>
    <g id="矩形_1891" data-name="矩形 1891" transform="translate(372 422.439)" fill="none" stroke="#cfd1d3" stroke-width="1">
      <rect width="34" height="20" stroke="none"/>
      <rect x="0.5" y="0.5" width="33" height="19" fill="none"/>
    </g>
    <g id="矩形_1908" data-name="矩形 1908" transform="translate(344.912 820.649)" fill="none" stroke="#cfd1d3" stroke-width="1">
      <rect width="44" height="20" stroke="none"/>
      <rect x="0.5" y="0.5" width="43" height="19" fill="none"/>
    </g>
    <text id="Text_font-size_14px_font-weigth_bolder_" data-name="Text font-size：14px；font-weigth：bolder；" transform="translate(376 436.939)" fill="#676a6c" font-size="15" font-family="SegoeUI, Segoe UI"><tspan x="0" y="0">Text font-size</tspan><tspan y="0" font-family="YuGothicUI-Regular, Yu Gothic UI">：</tspan><tspan y="0">14px</tspan><tspan y="0" font-family="YuGothicUI-Regular, Yu Gothic UI">；</tspan><tspan y="0">font-weigth</tspan><tspan y="0" font-family="YuGothicUI-Regular, Yu Gothic UI">：</tspan><tspan y="0">bolder</tspan><tspan y="0" font-family="YuGothicUI-Regular, Yu Gothic UI">；</tspan></text>
    <text id="Text_font-size_14px_" data-name="Text font-size：14px；" transform="translate(347.967 836.649)" fill="#676a6c" font-size="20" font-family="SegoeUI, Segoe UI"><tspan x="0" y="0">Text font-size</tspan><tspan y="0" font-family="YuGothicUI-Regular, Yu Gothic UI">：</tspan><tspan y="0">14px</tspan><tspan y="0" font-family="YuGothicUI-Regular, Yu Gothic UI">；</tspan></text>
    <line id="直线_491" data-name="直线 491" x2="1702" transform="translate(109 723.553)" fill="none" stroke="#0b2e13" stroke-width="1" stroke-dasharray="3 10"/>
    <text id="文字文字-4" data-name="文字文字" transform="translate(371.999 955.941)" fill="#676a6c" font-size="34" font-family="YuGothicUI-Regular, Yu Gothic UI"><tspan x="0" y="0">文字文字</tspan></text>
    <line id="直线_493" data-name="直线 493" y2="110" transform="translate(365.145 892.205)" fill="none" stroke="#cfd1d3" stroke-width="1"/>
    <line id="直线_494" data-name="直线 494" x1="432.5" transform="translate(330 964.941)" fill="none" stroke="#cfd1d3" stroke-width="1"/>
    <line id="直线_495" data-name="直线 495" x1="432.5" transform="translate(330 921.668)" fill="none" stroke="#cfd1d3" stroke-width="1"/>
    <rect id="矩形_1903" data-name="矩形 1903" width="20.232" height="79" transform="translate(344.912 903.41)" fill="#ffefc9" opacity="0.46"/>
    <rect id="矩形_1904" data-name="矩形 1904" width="20.232" height="79" transform="translate(726.352 903.41)" fill="#ffefc9" opacity="0.46"/>
    <rect id="矩形_1905" data-name="矩形 1905" width="17.47" height="395" transform="translate(742.446 964.941) rotate(90)" fill="#ffefc9" opacity="0.46"/>
    <rect id="矩形_1906" data-name="矩形 1906" width="17.47" height="401.588" transform="translate(746.585 904.199) rotate(90)" fill="#ffefc9" opacity="0.46"/>
    <g id="组_2983" data-name="组 2983" transform="translate(0 -10715.773)">
      <g id="组_2942" data-name="组 2942" transform="translate(3.789 3427.962)">
        <line id="直线_462" data-name="直线 462" x2="820" y2="1.644" transform="translate(96.711 7773.607)" fill="none" stroke="#cfd1d3" stroke-width="1"/>
        <line id="直线_490" data-name="直线 490" x2="820" y2="1.644" transform="translate(96.711 7815.85)" fill="none" stroke="#cfd1d3" stroke-width="1"/>
        <path id="路径_282" data-name="路径 282" d="M20.316,0h2.257V796H20.316C9.1,796,0,791.951,0,786.957V9.043C0,4.049,9.1,0,20.316,0Z" transform="translate(902.211 7750.033) rotate(90)" fill="#ffdc89" opacity="0.46"/>
        <path id="路径_314" data-name="路径 314" d="M17.377,0h1.931V790.281H17.377C7.78,790.281,0,786.262,0,781.3V8.978C0,4.02,7.78,0,17.377,0Z" transform="translate(109.93 7836.802) rotate(-90)" fill="#ffdc89" opacity="0.46"/>
      </g>
      <line id="直线_483" data-name="直线 483" y2="114" transform="translate(872.863 11162.213)" fill="none" stroke="#cfd1d3" stroke-width="1"/>
      <rect id="矩形_1889" data-name="矩形 1889" width="33.137" height="58.515" transform="translate(872.863 11194.955)" fill="#ffdc89" opacity="0.46"/>
      <rect id="矩形_1885" data-name="矩形 1885" width="27.07" height="69" transform="translate(112 11189.213)" fill="#ffefc9" opacity="0.46"/>
      <line id="直线_482" data-name="直线 482" y2="110" transform="translate(137.07 11166.973)" fill="none" stroke="#cfd1d3" stroke-width="1"/>
    </g>
    <text id="Tooltips" transform="translate(110 797)" fill="#45494d" font-size="31" font-family="SegoeUI-Bold, Segoe UI" font-weight="700"><tspan x="0" y="0">Tooltips</tspan></text>
    <text id="Alert" transform="translate(110 320.275)" fill="#45494d" font-size="31" font-family="SegoeUI-Bold, Segoe UI" font-weight="700"><tspan x="0" y="0">Alert</tspan></text>
    <text id="texttexttext" transform="translate(140 517.939)" fill="#676a6c" font-size="29" font-family="SegoeUI-Bold, Segoe UI" font-weight="700"><tspan x="0" y="0">text</tspan><tspan y="0" font-family="SegoeUI, Segoe UI" font-weight="400">texttext</tspan></text>
  </g>
</svg>
