<svg width="825" height="598" viewBox="0 0 825 598" fill="none" xmlns="http://www.w3.org/2000/svg">
<g clip-path="url(#clip0_326_4123)">
<g filter="url(#filter0_d_326_4123)">
<g clip-path="url(#clip1_326_4123)">
<path d="M13 14C13 6.268 19.268 0 27 0H797C804.732 0 811 6.26801 811 14V578.429C811 586.161 804.732 592.429 797 592.429H27C19.268 592.429 13 586.161 13 578.429V14Z" fill="white"/>
<path d="M13 15C13 6.71571 19.7157 0 28 0H796C804.284 0 811 6.71573 811 15V48.8H13V15Z" fill="#02B2E1"/>
<rect x="280" y="543.8" width="120" height="36.6288" rx="8" fill="#EAF5FB"/>
<path d="M333.266 557.52H338.04V559.158H333.266V557.52ZM326.588 556.512H333.658V558.066H326.588V556.512ZM328.436 559.41H331.81V560.908H328.436V559.41ZM328.436 562.322H331.81V563.82H328.436V562.322ZM337.578 557.52H337.872L338.166 557.478L339.258 557.744C338.712 563.414 336.878 566.858 333.714 568.79C333.462 568.356 332.986 567.726 332.608 567.404C335.394 565.948 337.116 562.504 337.578 557.884V557.52ZM334.904 559.2C335.59 562.84 337.088 565.934 339.776 567.39C339.398 567.712 338.88 568.356 338.614 568.79C335.674 567.012 334.176 563.736 333.294 559.508L334.904 559.2ZM327.554 557.156H329.15V566.312H327.554V557.156ZM331.152 557.156H332.776V568.874H331.152V557.156ZM326.266 565.696C327.652 565.542 329.738 565.262 331.712 564.982L331.81 566.508C329.99 566.83 328.044 567.138 326.574 567.362L326.266 565.696ZM346.356 562.238H351.9V563.652H346.356V562.238ZM346.342 564.702H351.9V566.102H346.342V564.702ZM351.76 556.05L353.398 556.624C352.936 557.604 352.418 558.598 351.984 559.27L350.528 558.724C350.948 558.01 351.48 556.904 351.76 556.05ZM344.802 556.778L346.216 556.148C346.776 556.918 347.378 557.954 347.588 558.668L346.076 559.382C345.894 558.668 345.348 557.59 344.802 556.778ZM345.236 559.634H351.928V561.202H346.888V568.86H345.236V559.634ZM351.144 559.634H352.782V567.054C352.782 567.852 352.628 568.3 352.11 568.566C351.578 568.818 350.822 568.832 349.772 568.832C349.702 568.384 349.478 567.698 349.268 567.264C349.912 567.292 350.654 567.292 350.864 567.292C351.074 567.278 351.144 567.222 351.144 567.04V559.634ZM348.218 555.714H349.912V560.684H348.218V555.714ZM341.036 557.016L342.016 555.84C342.884 556.26 343.99 556.918 344.536 557.45L343.486 558.738C342.996 558.22 341.904 557.478 341.036 557.016ZM340.392 560.74L341.344 559.55C342.226 559.956 343.36 560.628 343.92 561.16L342.912 562.476C342.394 561.944 341.288 561.202 340.392 560.74ZM340.784 567.726C341.47 566.662 342.436 564.884 343.192 563.246L344.424 564.254C343.794 565.766 343.01 567.39 342.254 568.804L340.784 567.726Z" fill="#676A6C"/>
<rect x="424.5" y="544.3" width="119" height="35.6288" rx="7.5" fill="#02B2E1"/>
<rect x="424.5" y="544.3" width="119" height="35.6288" rx="7.5" stroke="#02B2E1"/>
<path d="M477.672 562.532H482.922V563.75H477.672V562.532ZM477.672 564.744H482.922V565.976H477.672V564.744ZM477.644 566.956H483.566V568.342H477.644V566.956ZM475.586 557.03H483.496V559.592H482.012V558.444H477.014V559.592H475.586V557.03ZM479.576 561.356H481.116V567.614H479.576V561.356ZM478.19 560.194H483.23V561.594H478.19V568.888H476.622V561.65L478.036 560.194H478.19ZM478.932 555.714L480.528 556.008C479.772 559.046 478.372 561.468 476.314 562.98C476.09 562.658 475.516 562 475.18 561.72C477.098 560.46 478.344 558.332 478.932 555.714ZM480.43 558.78L481.984 559.102C481.62 559.872 481.242 560.628 480.934 561.146L479.674 560.824C479.954 560.25 480.276 559.396 480.43 558.78ZM470.658 556.554H475.712V558.08H470.658V556.554ZM472.24 560.67H475.488V567.194H472.24V565.752H474.074V562.126H472.24V560.67ZM472.1 557.366L473.682 557.618C473.262 560.642 472.506 563.61 471.078 565.514C470.924 565.122 470.476 564.268 470.182 563.89C471.274 562.35 471.82 559.928 472.1 557.366ZM471.582 560.67H472.94V568.272H471.582V560.67ZM492.372 556.848H493.884C493.618 559.13 493.002 561.44 490.426 562.798C490.244 562.42 489.81 561.874 489.474 561.608C491.742 560.53 492.162 558.598 492.372 556.848ZM489.95 559.242L490.734 558.08C492.12 558.5 493.758 559.27 494.696 559.872L493.898 561.16C492.988 560.502 491.322 559.676 489.95 559.242ZM495.564 556.274H497.132C497.132 556.274 497.132 556.694 497.118 556.89C496.978 560.082 496.838 561.398 496.46 561.846C496.194 562.196 495.928 562.322 495.522 562.378C495.186 562.434 494.612 562.434 493.996 562.42C493.982 561.958 493.814 561.328 493.59 560.922C494.066 560.964 494.486 560.964 494.696 560.964C494.878 560.978 495.004 560.936 495.116 560.796C495.34 560.53 495.466 559.466 495.564 556.526V556.274ZM491.49 563.82H493.03V566.886C493.03 567.278 493.058 567.32 493.324 567.32C493.45 567.32 493.912 567.32 494.052 567.32C494.318 567.32 494.374 567.152 494.416 565.85C494.71 566.102 495.368 566.34 495.788 566.452C495.634 568.3 495.228 568.776 494.22 568.776C493.968 568.776 493.324 568.776 493.058 568.776C491.756 568.776 491.49 568.314 491.49 566.914V563.82ZM490.062 564.366L491.378 564.716C491.252 565.976 490.986 567.306 490.314 568.132L489.082 567.376C489.656 566.676 489.936 565.514 490.062 564.366ZM491.798 562.854L492.764 561.888C493.66 562.336 494.766 563.064 495.284 563.652L494.248 564.744C493.758 564.17 492.694 563.372 491.798 562.854ZM494.892 564.59L496.25 564.044C496.978 565.108 497.594 566.536 497.776 567.53L496.306 568.132C496.152 567.152 495.578 565.668 494.892 564.59ZM490.132 556.274H496.278V557.674H490.132V556.274ZM485.05 560.026H489.152V561.286H485.05V560.026ZM485.092 556.162H489.11V557.436H485.092V556.162ZM485.05 561.93H489.152V563.204H485.05V561.93ZM484.406 558.052H489.53V559.382H484.406V558.052ZM485.778 563.876H489.166V568.132H485.778V566.802H487.766V565.206H485.778V563.876ZM485.022 563.876H486.394V568.692H485.022V563.876Z" fill="white"/>
<path d="M34.332 24.2933H49.776V27.9113H47.616V26.1653H36.402V27.9113H34.332V24.2933ZM40.236 18.8393L42.018 19.4153C41.424 20.1533 40.884 20.9093 40.434 21.4133L39.156 20.8913C39.534 20.3153 40.002 19.4333 40.236 18.8393ZM37.284 22.2953L38.616 21.1073C39.426 21.5933 40.632 22.3313 41.262 22.8173L39.876 24.1313C39.318 23.6453 38.13 22.8533 37.284 22.2953ZM35.556 27.7313H46.716V29.6753H35.556V27.7313ZM37.284 17.9393H39.174C39.048 21.6113 38.49 23.6093 34.71 24.6713C34.548 24.2213 34.062 23.4833 33.684 23.1233C36.87 22.3313 37.176 20.9273 37.284 17.9393ZM46.122 27.7313H48.3C48.3 27.7313 48.282 28.3073 48.264 28.5953C48.048 31.9613 47.778 33.4733 47.22 34.0673C46.77 34.5533 46.284 34.7153 45.6 34.7873C45.024 34.8413 43.998 34.8593 42.936 34.8053C42.882 34.1753 42.612 33.3113 42.216 32.7533C43.206 32.8253 44.214 32.8433 44.646 32.8433C44.97 32.8433 45.186 32.8073 45.384 32.6453C45.726 32.3393 45.96 31.0253 46.122 28.0373V27.7313ZM40.272 26.0213H42.576C42.342 30.9353 41.64 33.6173 34.998 34.8413C34.818 34.2653 34.278 33.3653 33.846 32.8973C39.75 31.9613 40.074 30.0893 40.272 26.0213ZM35.196 18.8933L36.582 19.3433C36.312 20.3153 35.88 21.2873 35.052 21.8993L33.792 21.0893C34.476 20.5853 34.98 19.7213 35.196 18.8933ZM48.264 18.8393L50.136 19.4333C49.506 20.2073 48.876 20.9993 48.408 21.5393L47.076 20.9813C47.49 20.3873 48.012 19.4693 48.264 18.8393ZM44.97 22.2233L46.266 20.9633C47.4 21.6473 49.11 22.6733 49.992 23.3033L48.606 24.7073C47.814 24.0593 46.14 22.9793 44.97 22.2233ZM45.006 17.9393H46.95C46.806 21.3953 46.23 23.4473 42.648 24.5633C42.468 24.0773 41.964 23.3393 41.55 22.9793C44.574 22.1513 44.898 20.7113 45.006 17.9393ZM42.828 18.8393L44.214 19.2893C43.962 20.2793 43.566 21.2513 42.738 21.8633L41.442 21.0353C42.144 20.5493 42.612 19.6673 42.828 18.8393ZM61.476 24.3293H63.654V34.8593H61.476V24.3293ZM56.742 26.5793H68.316V28.5413H56.742V26.5793ZM64.068 27.4433C65.058 29.4053 66.966 31.4033 68.838 32.4833C68.352 32.8973 67.668 33.6713 67.308 34.2113C65.418 32.8613 63.564 30.4313 62.448 28.0373L64.068 27.4433ZM61.188 27.2813L62.88 27.8753C61.71 30.4133 59.712 32.8073 57.588 34.1573C57.246 33.6353 56.562 32.8613 56.094 32.4473C58.146 31.3853 60.144 29.3333 61.188 27.2813ZM59.982 20.6393V23.0513H65.274V20.6393H59.982ZM57.93 18.7493H67.434V24.9593H57.93V18.7493ZM55.572 17.9933L57.588 18.6413C56.382 21.7013 54.456 24.9233 52.458 26.9573C52.278 26.4533 51.684 25.2653 51.324 24.7433C52.998 23.1233 54.618 20.5673 55.572 17.9933ZM53.844 22.9793L55.878 20.9273L55.896 20.9453V34.8053H53.844V22.9793ZM77.37 18.6233H79.386V20.5133C79.386 22.2593 78.918 24.3653 76.776 25.6793C76.524 25.2653 75.75 24.4013 75.354 24.1133C77.136 23.0693 77.37 21.6653 77.37 20.4593V18.6233ZM78.378 18.6233H82.734V20.6213H78.378V18.6233ZM81.708 18.6233H83.76V22.5473C83.76 23.0333 83.814 23.0873 84.03 23.0873C84.12 23.0873 84.444 23.0873 84.552 23.0873C84.804 23.0873 84.858 22.8353 84.894 21.2693C85.29 21.5933 86.136 21.8993 86.676 22.0433C86.496 24.2573 86.01 24.8693 84.786 24.8693C84.462 24.8693 83.922 24.8693 83.634 24.8693C82.14 24.8693 81.708 24.3473 81.708 22.5653V18.6233ZM76.398 25.6793H83.886V27.6233H76.398V25.6793ZM83.22 25.6793H83.634L84.03 25.6073L85.434 26.1473C84.048 31.1693 80.556 33.6893 75.876 34.8773C75.66 34.3013 75.156 33.3833 74.76 32.9153C78.972 32.0873 82.158 29.8373 83.22 26.0033V25.6793ZM78.792 27.4973C80.106 30.2333 82.842 32.1413 86.694 32.8973C86.226 33.3473 85.596 34.2653 85.29 34.8413C81.186 33.8693 78.486 31.5653 76.848 28.0913L78.792 27.4973ZM69.378 27.2093C70.908 26.9033 73.284 26.3093 75.57 25.7513L75.804 27.6233C73.788 28.2713 71.682 28.9553 69.99 29.4593L69.378 27.2093ZM69.666 21.3053H75.876V23.3033H69.666V21.3053ZM71.952 17.9573H74.076V32.5373C74.076 33.5813 73.878 34.1213 73.266 34.4453C72.672 34.7693 71.808 34.8413 70.53 34.8233C70.458 34.2833 70.188 33.4013 69.936 32.8613C70.62 32.8793 71.376 32.8793 71.61 32.8793C71.844 32.8613 71.952 32.7893 71.952 32.5373V17.9573ZM97.476 24.3293H99.654V34.8593H97.476V24.3293ZM92.742 26.5793H104.316V28.5413H92.742V26.5793ZM100.068 27.4433C101.058 29.4053 102.966 31.4033 104.838 32.4833C104.352 32.8973 103.668 33.6713 103.308 34.2113C101.418 32.8613 99.564 30.4313 98.448 28.0373L100.068 27.4433ZM97.188 27.2813L98.88 27.8753C97.71 30.4133 95.712 32.8073 93.588 34.1573C93.246 33.6353 92.562 32.8613 92.094 32.4473C94.146 31.3853 96.144 29.3333 97.188 27.2813ZM95.982 20.6393V23.0513H101.274V20.6393H95.982ZM93.93 18.7493H103.434V24.9593H93.93V18.7493ZM91.572 17.9933L93.588 18.6413C92.382 21.7013 90.456 24.9233 88.458 26.9573C88.278 26.4533 87.684 25.2653 87.324 24.7433C88.998 23.1233 90.618 20.5673 91.572 17.9933ZM89.844 22.9793L91.878 20.9273L91.896 20.9453V34.8053H89.844V22.9793ZM106.422 19.6853L107.358 18.2273C108.564 18.5153 110.274 19.0913 111.174 19.5233L110.202 21.1613C109.374 20.7113 107.664 20.0633 106.422 19.6853ZM105.63 22.7453C106.962 22.4933 108.906 22.0253 110.814 21.5933L111.012 23.2853C109.446 23.7533 107.79 24.2393 106.44 24.6173L105.63 22.7453ZM113.604 19.1633H120.516V20.6753H112.398L113.604 19.1633ZM120.012 19.1633H120.318L120.642 19.0913L122.064 19.4513C121.596 20.4413 120.948 21.5213 120.354 22.1873L118.68 21.6833C119.166 21.1073 119.706 20.1713 120.012 19.3973V19.1633ZM115.44 19.7933H117.384C117.024 22.3673 116.016 23.9153 111.984 24.7253C111.804 24.2933 111.354 23.5733 110.994 23.1953C114.468 22.6553 115.17 21.6113 115.44 19.7933ZM117.258 20.2613C117.564 21.5933 118.356 22.7633 122.442 23.2313C122.046 23.6633 121.578 24.4733 121.38 25.0133C116.88 24.2933 115.998 22.3313 115.53 20.4233L117.258 20.2613ZM113.55 17.9573L115.44 18.2633C114.738 19.7033 113.856 21.0173 112.488 22.1333C112.11 21.7553 111.372 21.3053 110.868 21.1073C112.182 20.2073 113.064 19.0013 113.55 17.9573ZM110.166 27.7493V28.5233H117.996V27.7493H110.166ZM110.166 29.7473V30.5393H117.996V29.7473H110.166ZM110.166 25.7693V26.5253H117.996V25.7693H110.166ZM108.078 24.4733H120.174V31.8173H108.078V24.4733ZM115.008 32.7533L116.808 31.7273C118.698 32.4113 120.93 33.3113 122.208 33.9413L119.688 34.9133C118.68 34.3013 116.826 33.4373 115.008 32.7533ZM111.012 31.6733L112.992 32.5553C111.516 33.5093 109.176 34.4093 107.34 34.9313C106.962 34.4993 106.224 33.7073 105.738 33.3473C107.646 32.9873 109.788 32.3573 111.012 31.6733ZM126.402 18.0473H128.4V34.8233H126.402V18.0473ZM123.684 23.9513H131.064V25.9673H123.684V23.9513ZM126.024 25.0313L127.212 25.6073C126.636 28.0193 125.52 31.1513 124.332 32.8793C124.134 32.2133 123.666 31.2593 123.342 30.6473C124.422 29.3153 125.52 26.8133 126.024 25.0313ZM128.364 26.0753C128.886 26.5433 130.632 28.6313 131.028 29.1353L129.696 30.8273C129.228 29.8013 128.022 27.8033 127.374 26.9213L128.364 26.0753ZM123.648 19.4333L125.16 19.0373C125.628 20.3513 125.988 22.0613 126.078 23.1953L124.458 23.6273C124.422 22.4933 124.08 20.7473 123.648 19.4333ZM129.588 18.9473L131.406 19.3433C130.938 20.8013 130.398 22.5113 129.948 23.5733L128.598 23.1953C128.958 22.0433 129.39 20.2253 129.588 18.9473ZM136.392 17.9393H138.426V34.8413H136.392V17.9393ZM131.01 29.2073L140.262 27.5513L140.586 29.5493L131.352 31.2233L131.01 29.2073ZM132.036 20.4053L133.098 18.9293C134.106 19.5413 135.384 20.4413 135.978 21.1073L134.844 22.7453C134.304 22.0433 133.044 21.0533 132.036 20.4053ZM131.226 24.9413L132.234 23.3933C133.278 23.9513 134.628 24.8153 135.276 25.4813L134.196 27.1913C133.584 26.5253 132.27 25.5533 131.226 24.9413Z" fill="white"/>
<g clip-path="url(#clip2_326_4123)">
<path d="M790.793 31.9719C790.793 32.3418 790.654 32.6562 790.378 32.9151L788.365 34.8014C788.089 35.0603 787.753 35.1897 787.358 35.1897C786.964 35.1897 786.628 35.0603 786.352 34.8014L782 30.7236L777.648 34.8014C777.372 35.0603 777.036 35.1897 776.641 35.1897C776.247 35.1897 775.911 35.0603 775.635 34.8014L773.622 32.9151C773.345 32.6562 773.207 32.3418 773.207 31.9719C773.207 31.602 773.345 31.2876 773.622 31.0287L777.973 26.951L773.622 22.8732C773.345 22.6143 773.207 22.2999 773.207 21.93C773.207 21.5601 773.345 21.2457 773.622 20.9868L775.635 19.1005C775.911 18.8416 776.247 18.7122 776.641 18.7122C777.036 18.7122 777.372 18.8416 777.648 19.1005L782 23.1783L786.352 19.1005C786.628 18.8416 786.964 18.7122 787.358 18.7122C787.753 18.7122 788.089 18.8416 788.365 19.1005L790.378 20.9868C790.654 21.2457 790.793 21.5601 790.793 21.93C790.793 22.2999 790.654 22.6143 790.378 22.8732L786.026 26.951L790.378 31.0287C790.654 31.2876 790.793 31.602 790.793 31.9719Z" fill="white"/>
</g>
</g>
</g>
<rect x="33.5" y="92.5" width="368" height="37" rx="7.5" fill="white"/>
<rect x="33.5" y="92.5" width="368" height="37" rx="7.5" stroke="#999999"/>
<path d="M46.824 109.38V115.044H45.688V110.5H43.72V109.38H46.824ZM46.824 114.564C47.576 115.764 49 116.308 50.904 116.388C52.712 116.468 56.472 116.42 58.44 116.292C58.296 116.548 58.104 117.092 58.056 117.428C56.232 117.508 52.744 117.54 50.92 117.476C48.792 117.396 47.336 116.82 46.328 115.556C45.64 116.244 44.92 116.932 44.152 117.652L43.528 116.516C44.216 115.988 45.064 115.268 45.8 114.564H46.824ZM43.8 104.052L44.728 103.444C45.672 104.212 46.744 105.316 47.192 106.116L46.184 106.804C45.768 106.004 44.728 104.852 43.8 104.052ZM48.008 109.828H57.72V110.756H48.008V109.828ZM47.496 112.292H58.216V113.236H47.496V112.292ZM50.376 108.676H51.528V112.756H50.376V108.676ZM54.152 108.676H55.288V112.756H54.152V108.676ZM48.408 105.572H51.224V104.532H47.8V103.7H52.28V106.42H48.408V105.572ZM48.072 105.572H49.096V107.236C49.096 107.54 49.176 107.604 49.688 107.604C49.912 107.604 51.128 107.604 51.432 107.604C51.816 107.604 51.896 107.508 51.944 106.804C52.136 106.964 52.536 107.092 52.824 107.14C52.712 108.18 52.408 108.452 51.592 108.452C51.336 108.452 49.816 108.452 49.576 108.452C48.392 108.452 48.072 108.212 48.072 107.252V105.572ZM53.688 105.572H56.456V104.532H53.048V103.7H57.496V106.42H53.688V105.572ZM53.336 105.572H54.36V107.236C54.36 107.54 54.456 107.604 55 107.604C55.256 107.604 56.568 107.604 56.888 107.604C57.288 107.604 57.368 107.508 57.416 106.756C57.624 106.9 58.024 107.028 58.312 107.092C58.2 108.18 57.896 108.452 57.032 108.452C56.776 108.452 55.144 108.452 54.888 108.452C53.672 108.452 53.336 108.212 53.336 107.236V105.572ZM53.864 113.956L54.728 113.428C55.896 113.988 57.208 114.772 57.976 115.364L56.792 115.892C56.152 115.3 54.968 114.532 53.864 113.956ZM50.936 113.396L51.992 113.764C51.176 114.548 49.88 115.332 48.808 115.844C48.632 115.636 48.184 115.252 47.928 115.092C49.016 114.66 50.216 114.052 50.936 113.396ZM71.256 104.58V106.276H72.888V104.58H71.256ZM68.696 104.58V106.276H70.296V104.58H68.696ZM66.216 104.58V106.276H67.736V104.58H66.216ZM65.224 103.716H73.896V107.14H65.224V103.716ZM65.4 108.132H73.576V109.044H65.4V108.132ZM64.6 110.18H74.376V111.14H64.6V110.18ZM64.76 112.66H74.152V113.604H64.76V112.66ZM65.08 114.756H73.8V115.684H65.08V114.756ZM68.856 106.916H70.008V110.564H68.856V106.916ZM68.856 113.076H70.008V117.908H68.856V113.076ZM66.6 111.284L67.592 111.06C67.848 111.508 68.136 112.132 68.232 112.548L67.192 112.82C67.096 112.42 66.856 111.764 66.6 111.284ZM71.384 110.9L72.504 111.204C72.184 111.796 71.832 112.404 71.56 112.82L70.648 112.564C70.904 112.084 71.224 111.364 71.384 110.9ZM59.432 111.364C60.68 111.012 62.552 110.436 64.376 109.844L64.536 110.948C62.872 111.524 61.112 112.1 59.752 112.532L59.432 111.364ZM59.656 106.292H64.52V107.412H59.656V106.292ZM61.672 103.076H62.792V116.388C62.792 117.06 62.632 117.38 62.232 117.572C61.864 117.764 61.24 117.796 60.232 117.796C60.184 117.508 60.04 117.012 59.88 116.676C60.584 116.692 61.192 116.692 61.384 116.676C61.576 116.676 61.672 116.628 61.672 116.388V103.076ZM77.2045 116.591C76.9242 116.591 76.6837 116.491 76.483 116.29C76.2822 116.089 76.1818 115.848 76.1818 115.568C76.1818 115.288 76.2822 115.047 76.483 114.847C76.6837 114.646 76.9242 114.545 77.2045 114.545C77.4848 114.545 77.7254 114.646 77.9261 114.847C78.1269 115.047 78.2273 115.288 78.2273 115.568C78.2273 115.754 78.1799 115.924 78.0852 116.08C77.9943 116.235 77.8712 116.36 77.7159 116.455C77.5644 116.545 77.3939 116.591 77.2045 116.591ZM81.6108 116.591C81.3305 116.591 81.09 116.491 80.8892 116.29C80.6884 116.089 80.5881 115.848 80.5881 115.568C80.5881 115.288 80.6884 115.047 80.8892 114.847C81.09 114.646 81.3305 114.545 81.6108 114.545C81.8911 114.545 82.1316 114.646 82.3324 114.847C82.5331 115.047 82.6335 115.288 82.6335 115.568C82.6335 115.754 82.5862 115.924 82.4915 116.08C82.4006 116.235 82.2775 116.36 82.1222 116.455C81.9706 116.545 81.8002 116.591 81.6108 116.591ZM86.017 116.591C85.7367 116.591 85.4962 116.491 85.2955 116.29C85.0947 116.089 84.9943 115.848 84.9943 115.568C84.9943 115.288 85.0947 115.047 85.2955 114.847C85.4962 114.646 85.7367 114.545 86.017 114.545C86.2973 114.545 86.5379 114.646 86.7386 114.847C86.9394 115.047 87.0398 115.288 87.0398 115.568C87.0398 115.754 86.9924 115.924 86.8977 116.08C86.8068 116.235 86.6837 116.36 86.5284 116.455C86.3769 116.545 86.2064 116.591 86.017 116.591ZM90.4233 116.591C90.143 116.591 89.9025 116.491 89.7017 116.29C89.5009 116.089 89.4006 115.848 89.4006 115.568C89.4006 115.288 89.5009 115.047 89.7017 114.847C89.9025 114.646 90.143 114.545 90.4233 114.545C90.7036 114.545 90.9441 114.646 91.1449 114.847C91.3456 115.047 91.446 115.288 91.446 115.568C91.446 115.754 91.3987 115.924 91.304 116.08C91.2131 116.235 91.09 116.36 90.9347 116.455C90.7831 116.545 90.6127 116.591 90.4233 116.591Z" fill="#999999"/>
<path d="M387 107.8C387 108.044 386.889 108.255 386.666 108.433L378.791 114.733C378.568 114.911 378.305 115 378 115C377.695 115 377.432 114.911 377.209 114.733L369.334 108.433C369.111 108.255 369 108.044 369 107.8C369 107.556 369.111 107.345 369.334 107.167C369.557 106.989 369.82 106.9 370.125 106.9H385.875C386.18 106.9 386.443 106.989 386.666 107.167C386.889 107.345 387 107.556 387 107.8Z" fill="#676A6C"/>
<path d="M37.224 71.16V72.808H44.824V71.16H37.224ZM36.024 70.184H46.088V73.8H36.024V70.184ZM36.536 77.592V78.728H45.496V77.592H36.536ZM36.536 79.576V80.728H45.496V79.576H36.536ZM36.536 75.624V76.744H45.496V75.624H36.536ZM35.336 74.728H46.728V81.608H35.336V74.728ZM38.392 81.592L39.512 82.328C38.232 83.112 36.152 83.88 34.504 84.296C34.296 84.04 33.896 83.656 33.608 83.416C35.288 83.016 37.384 82.248 38.392 81.592ZM42.296 82.424L43.336 81.64C45 82.136 47.144 82.92 48.392 83.448L47.352 84.312C46.168 83.752 43.992 82.92 42.296 82.424ZM50.664 71.368H63.4V72.616H50.664V71.368ZM49.816 81.864H64.2V83.064H49.816V81.864ZM56.28 71.992H57.624V82.36H56.28V71.992ZM74.84 77.768H75.656V84.136H74.84V77.768ZM76.888 77.768H77.72V84.136H76.888V77.768ZM71.256 70.536H80.072V71.592H71.256V70.536ZM73.192 80.248H79.576V81.16H73.192V80.248ZM71.88 72.648H72.968V76.184C72.968 78.488 72.696 81.816 71.048 84.056C70.872 83.848 70.408 83.512 70.168 83.384C71.72 81.272 71.88 78.328 71.88 76.168V72.648ZM72.36 72.648H79.672V76.36H72.36V75.368H78.52V73.64H72.36V72.648ZM72.744 77.448H79.64V78.392H73.64V84.296H72.744V77.448ZM79 77.448H80.008V83.144C80.008 83.624 79.944 83.912 79.64 84.104C79.352 84.248 78.936 84.28 78.328 84.28C78.296 83.992 78.136 83.576 78.008 83.288C78.408 83.304 78.728 83.304 78.856 83.304C78.968 83.304 79 83.272 79 83.128V77.448ZM68.136 69.576L69.16 69.96C68.584 71.144 67.832 72.584 67.24 73.48L66.44 73.128C67 72.2 67.736 70.632 68.136 69.576ZM69.832 71.4L70.824 71.848C69.768 73.624 68.296 75.896 67.144 77.272L66.424 76.888C67.56 75.464 69 73.08 69.832 71.4ZM65.576 72.888L66.216 72.12C67.064 72.904 68.04 73.992 68.456 74.712L67.784 75.592C67.384 74.824 66.424 73.688 65.576 72.888ZM69.224 75.016L70.072 74.696C70.68 75.752 71.272 77.16 71.432 78.056L70.536 78.44C70.36 77.544 69.816 76.104 69.224 75.016ZM65.448 76.648C66.776 76.584 68.68 76.488 70.6 76.376V77.4C68.792 77.512 66.968 77.624 65.576 77.72L65.448 76.648ZM69.528 78.904L70.376 78.664C70.76 79.576 71.096 80.792 71.176 81.576L70.28 81.848C70.2 81.048 69.896 79.832 69.528 78.904ZM66.408 78.712L67.4 78.888C67.192 80.392 66.808 81.944 66.312 82.968C66.12 82.824 65.656 82.616 65.416 82.52C65.928 81.544 66.232 80.104 66.408 78.712ZM68.024 77.112H69.064V84.28H68.024V77.112ZM83.464 71.176V73.608H85.848V71.176H83.464ZM82.376 70.168H86.984V74.632H82.376V70.168ZM81.64 75.752H87.672V76.808H81.64V75.752ZM83.144 76.232H84.248C83.976 77.56 83.592 79.224 83.304 80.28L82.216 80.072C82.536 79.048 82.904 77.448 83.144 76.232ZM83.272 78.232H86.248V79.256H83L83.272 78.232ZM85.8 78.232H86.92C86.92 78.232 86.904 78.552 86.888 78.728C86.632 82.072 86.392 83.384 85.944 83.864C85.672 84.152 85.4 84.248 84.968 84.296C84.616 84.312 83.96 84.312 83.288 84.28C83.272 83.976 83.144 83.512 82.952 83.224C83.64 83.288 84.264 83.288 84.52 83.288C84.76 83.304 84.92 83.272 85.048 83.128C85.368 82.808 85.608 81.576 85.8 78.424V78.232ZM91.832 70.664H95.656V71.656H91.832V70.664ZM88.616 72.744H95.672V73.72H88.616V72.744ZM91.256 69.56H92.408V73.256H91.256V69.56ZM88.104 72.744H89.192V76.84C89.192 79.08 88.968 82.248 87.48 84.376C87.288 84.168 86.84 83.832 86.568 83.72C87.96 81.688 88.104 78.904 88.104 76.84V72.744ZM89.576 75.384L94.312 74.92L94.424 75.752L89.688 76.264L89.576 75.384ZM91.32 73.832H92.392V76.696C92.392 77.032 92.456 77.08 92.904 77.08C93.096 77.08 94.12 77.08 94.392 77.08C94.744 77.08 94.808 76.968 94.856 76.072C95.08 76.216 95.496 76.36 95.784 76.424C95.688 77.656 95.384 77.976 94.52 77.976C94.28 77.976 93 77.976 92.76 77.976C91.608 77.976 91.32 77.72 91.32 76.696V73.832ZM95.336 72.744H95.512L95.704 72.696L96.456 72.888C96.264 73.864 96.008 75.016 95.816 75.736L94.888 75.512C95.048 74.84 95.24 73.752 95.336 72.904V72.744ZM90.488 78.68H91.528C91.416 81.4 90.952 83.272 89 84.344C88.856 84.072 88.536 83.672 88.296 83.48C90.04 82.584 90.392 81.032 90.488 78.68ZM92.84 78.664H93.88V82.616C93.88 82.728 93.912 82.84 93.992 82.872C94.088 82.92 94.216 82.952 94.376 82.952C94.504 82.952 94.76 82.952 94.952 82.952C95.096 82.952 95.304 82.92 95.384 82.872C95.48 82.824 95.56 82.712 95.592 82.536C95.64 82.28 95.656 81.656 95.656 80.936C95.864 81.128 96.264 81.336 96.568 81.432C96.552 82.184 96.472 82.984 96.392 83.256C96.296 83.56 96.12 83.736 95.88 83.88C95.688 83.976 95.336 84.04 95.032 84.04C94.824 84.04 94.296 84.04 94.12 84.04C93.768 84.04 93.4 83.976 93.16 83.784C92.904 83.56 92.84 83.32 92.84 82.584V78.664Z" fill="#676A6C"/>
<path d="M100.455 77.9091L100.545 75.4091L98.4318 76.75L97.8864 75.7955L100.114 74.6364L97.8864 73.4773L98.4318 72.5227L100.545 73.8636L100.455 71.3636H101.545L101.455 73.8636L103.568 72.5227L104.114 73.4773L101.886 74.6364L104.114 75.7955L103.568 76.75L101.455 75.4091L101.545 77.9091H100.455Z" fill="#F14C41"/>
<rect x="33.5" y="171.5" width="368" height="37" rx="7.5" fill="white"/>
<rect x="33.5" y="171.5" width="368" height="37" rx="7.5" stroke="#999999"/>
<path d="M46.824 188.38V194.044H45.688V189.5H43.72V188.38H46.824ZM46.824 193.564C47.576 194.764 49 195.308 50.904 195.388C52.712 195.468 56.472 195.42 58.44 195.292C58.296 195.548 58.104 196.092 58.056 196.428C56.232 196.508 52.744 196.54 50.92 196.476C48.792 196.396 47.336 195.82 46.328 194.556C45.64 195.244 44.92 195.932 44.152 196.652L43.528 195.516C44.216 194.988 45.064 194.268 45.8 193.564H46.824ZM43.8 183.052L44.728 182.444C45.672 183.212 46.744 184.316 47.192 185.116L46.184 185.804C45.768 185.004 44.728 183.852 43.8 183.052ZM48.008 188.828H57.72V189.756H48.008V188.828ZM47.496 191.292H58.216V192.236H47.496V191.292ZM50.376 187.676H51.528V191.756H50.376V187.676ZM54.152 187.676H55.288V191.756H54.152V187.676ZM48.408 184.572H51.224V183.532H47.8V182.7H52.28V185.42H48.408V184.572ZM48.072 184.572H49.096V186.236C49.096 186.54 49.176 186.604 49.688 186.604C49.912 186.604 51.128 186.604 51.432 186.604C51.816 186.604 51.896 186.508 51.944 185.804C52.136 185.964 52.536 186.092 52.824 186.14C52.712 187.18 52.408 187.452 51.592 187.452C51.336 187.452 49.816 187.452 49.576 187.452C48.392 187.452 48.072 187.212 48.072 186.252V184.572ZM53.688 184.572H56.456V183.532H53.048V182.7H57.496V185.42H53.688V184.572ZM53.336 184.572H54.36V186.236C54.36 186.54 54.456 186.604 55 186.604C55.256 186.604 56.568 186.604 56.888 186.604C57.288 186.604 57.368 186.508 57.416 185.756C57.624 185.9 58.024 186.028 58.312 186.092C58.2 187.18 57.896 187.452 57.032 187.452C56.776 187.452 55.144 187.452 54.888 187.452C53.672 187.452 53.336 187.212 53.336 186.236V184.572ZM53.864 192.956L54.728 192.428C55.896 192.988 57.208 193.772 57.976 194.364L56.792 194.892C56.152 194.3 54.968 193.532 53.864 192.956ZM50.936 192.396L51.992 192.764C51.176 193.548 49.88 194.332 48.808 194.844C48.632 194.636 48.184 194.252 47.928 194.092C49.016 193.66 50.216 193.052 50.936 192.396ZM71.256 183.58V185.276H72.888V183.58H71.256ZM68.696 183.58V185.276H70.296V183.58H68.696ZM66.216 183.58V185.276H67.736V183.58H66.216ZM65.224 182.716H73.896V186.14H65.224V182.716ZM65.4 187.132H73.576V188.044H65.4V187.132ZM64.6 189.18H74.376V190.14H64.6V189.18ZM64.76 191.66H74.152V192.604H64.76V191.66ZM65.08 193.756H73.8V194.684H65.08V193.756ZM68.856 185.916H70.008V189.564H68.856V185.916ZM68.856 192.076H70.008V196.908H68.856V192.076ZM66.6 190.284L67.592 190.06C67.848 190.508 68.136 191.132 68.232 191.548L67.192 191.82C67.096 191.42 66.856 190.764 66.6 190.284ZM71.384 189.9L72.504 190.204C72.184 190.796 71.832 191.404 71.56 191.82L70.648 191.564C70.904 191.084 71.224 190.364 71.384 189.9ZM59.432 190.364C60.68 190.012 62.552 189.436 64.376 188.844L64.536 189.948C62.872 190.524 61.112 191.1 59.752 191.532L59.432 190.364ZM59.656 185.292H64.52V186.412H59.656V185.292ZM61.672 182.076H62.792V195.388C62.792 196.06 62.632 196.38 62.232 196.572C61.864 196.764 61.24 196.796 60.232 196.796C60.184 196.508 60.04 196.012 59.88 195.676C60.584 195.692 61.192 195.692 61.384 195.676C61.576 195.676 61.672 195.628 61.672 195.388V182.076ZM77.2045 195.591C76.9242 195.591 76.6837 195.491 76.483 195.29C76.2822 195.089 76.1818 194.848 76.1818 194.568C76.1818 194.288 76.2822 194.047 76.483 193.847C76.6837 193.646 76.9242 193.545 77.2045 193.545C77.4848 193.545 77.7254 193.646 77.9261 193.847C78.1269 194.047 78.2273 194.288 78.2273 194.568C78.2273 194.754 78.1799 194.924 78.0852 195.08C77.9943 195.235 77.8712 195.36 77.7159 195.455C77.5644 195.545 77.3939 195.591 77.2045 195.591ZM81.6108 195.591C81.3305 195.591 81.09 195.491 80.8892 195.29C80.6884 195.089 80.5881 194.848 80.5881 194.568C80.5881 194.288 80.6884 194.047 80.8892 193.847C81.09 193.646 81.3305 193.545 81.6108 193.545C81.8911 193.545 82.1316 193.646 82.3324 193.847C82.5331 194.047 82.6335 194.288 82.6335 194.568C82.6335 194.754 82.5862 194.924 82.4915 195.08C82.4006 195.235 82.2775 195.36 82.1222 195.455C81.9706 195.545 81.8002 195.591 81.6108 195.591ZM86.017 195.591C85.7367 195.591 85.4962 195.491 85.2955 195.29C85.0947 195.089 84.9943 194.848 84.9943 194.568C84.9943 194.288 85.0947 194.047 85.2955 193.847C85.4962 193.646 85.7367 193.545 86.017 193.545C86.2973 193.545 86.5379 193.646 86.7386 193.847C86.9394 194.047 87.0398 194.288 87.0398 194.568C87.0398 194.754 86.9924 194.924 86.8977 195.08C86.8068 195.235 86.6837 195.36 86.5284 195.455C86.3769 195.545 86.2064 195.591 86.017 195.591ZM90.4233 195.591C90.143 195.591 89.9025 195.491 89.7017 195.29C89.5009 195.089 89.4006 194.848 89.4006 194.568C89.4006 194.288 89.5009 194.047 89.7017 193.847C89.9025 193.646 90.143 193.545 90.4233 193.545C90.7036 193.545 90.9441 193.646 91.1449 193.847C91.3456 194.047 91.446 194.288 91.446 194.568C91.446 194.754 91.3987 194.924 91.304 195.08C91.2131 195.235 91.09 195.36 90.9347 195.455C90.7831 195.545 90.6127 195.591 90.4233 195.591Z" fill="#999999"/>
<path d="M387 186.8C387 187.044 386.889 187.255 386.666 187.433L378.791 193.733C378.568 193.911 378.305 194 378 194C377.695 194 377.432 193.911 377.209 193.733L369.334 187.433C369.111 187.255 369 187.044 369 186.8C369 186.556 369.111 186.345 369.334 186.167C369.557 185.989 369.82 185.9 370.125 185.9H385.875C386.18 185.9 386.443 185.989 386.666 186.167C386.889 186.345 387 186.556 387 186.8Z" fill="#676A6C"/>
<path d="M34.36 154.352H47.72V157.184H46.52V155.424H35.512V157.184H34.36V154.352ZM39.832 149.392L40.84 149.776C40.344 150.432 39.816 151.104 39.384 151.568L38.648 151.216C39.048 150.72 39.56 149.92 39.832 149.392ZM36.984 152.032L37.768 151.376C38.584 151.904 39.72 152.688 40.312 153.184L39.512 153.92C38.952 153.424 37.832 152.608 36.984 152.032ZM35.24 157.392H45.608V158.496H35.24V157.392ZM37.208 148.56H38.28C38.136 151.824 37.528 153.44 34.376 154.32C34.264 154.064 33.976 153.648 33.768 153.44C36.616 152.72 37.08 151.408 37.208 148.56ZM45.272 157.392H46.488C46.488 157.392 46.472 157.744 46.456 157.936C46.232 161.04 45.992 162.304 45.512 162.784C45.208 163.104 44.872 163.216 44.328 163.248C43.832 163.28 42.872 163.28 41.864 163.216C41.832 162.864 41.688 162.384 41.464 162.08C42.488 162.16 43.48 162.176 43.848 162.176C44.168 162.176 44.36 162.144 44.52 162.016C44.856 161.712 45.08 160.512 45.272 157.568V157.392ZM39.912 155.664H41.176C40.904 160 40.056 162.256 34.52 163.28C34.424 162.976 34.12 162.464 33.88 162.208C39.032 161.344 39.672 159.504 39.912 155.664ZM35.368 149.424L36.184 149.696C35.912 150.512 35.496 151.392 34.76 151.92L34.024 151.424C34.664 150.976 35.144 150.16 35.368 149.424ZM46.824 149.392L47.864 149.792C47.336 150.464 46.712 151.2 46.248 151.696L45.48 151.328C45.928 150.8 46.52 149.952 46.824 149.392ZM43.672 151.968L44.408 151.264C45.544 151.952 47.096 152.976 47.912 153.6L47.128 154.4C46.36 153.76 44.808 152.704 43.672 151.968ZM43.896 148.56H45C44.856 151.664 44.248 153.296 41.272 154.208C41.16 153.936 40.856 153.504 40.632 153.312C43.32 152.576 43.784 151.264 43.896 148.56ZM42.024 149.392L42.84 149.664C42.584 150.512 42.168 151.36 41.384 151.872L40.632 151.376C41.32 150.944 41.8 150.16 42.024 149.392ZM58.552 154.064H59.768V163.296H58.552V154.064ZM53.88 156.416H64.264V157.52H53.88V156.416ZM60.104 156.848C61.064 158.768 62.936 160.704 64.68 161.664C64.424 161.888 64.04 162.32 63.832 162.608C62.088 161.488 60.232 159.328 59.176 157.2L60.104 156.848ZM58.28 156.768L59.224 157.12C58.152 159.328 56.168 161.472 54.264 162.576C54.056 162.288 53.688 161.872 53.432 161.632C55.304 160.704 57.272 158.72 58.28 156.768ZM56.216 150.4V153.328H62.184V150.4H56.216ZM55.08 149.328H63.368V154.416H55.08V149.328ZM53.416 148.608L54.552 148.96C53.464 151.664 51.784 154.352 50.04 156.128C49.912 155.856 49.576 155.232 49.352 154.944C50.952 153.424 52.488 151.04 53.416 148.608ZM51.752 152.736L52.888 151.6L52.904 151.616V163.248H51.752V152.736ZM69.128 152.688H76.712V153.616H69.128V152.688ZM69.128 155.104H76.712V156.032H69.128V155.104ZM76.184 150.16H77.416V161.616C77.416 162.464 77.224 162.864 76.632 163.072C76.024 163.28 74.984 163.296 73.352 163.296C73.288 162.944 73.08 162.384 72.904 162.016C74.168 162.08 75.368 162.064 75.72 162.048C76.072 162.048 76.184 161.936 76.184 161.616V150.16ZM65.864 157.888C68.504 157.76 72.776 157.504 76.76 157.248L76.744 158.256C72.904 158.576 68.824 158.896 66.04 159.088L65.864 157.888ZM78.92 153.712L80.056 154.288C77.016 158.72 72.072 161.52 66.52 163.168C66.36 162.88 65.96 162.32 65.72 162.064C71.304 160.592 76.152 157.856 78.92 153.712ZM72.312 148.528L73.752 148.752C73.336 149.568 72.824 150.448 72.424 151.024L71.352 150.768C71.704 150.128 72.12 149.184 72.312 148.528ZM68.376 150.16H76.584V151.216H69.56V158.368H68.376V150.16ZM83.992 154.624H93.144V155.792H83.992V154.624ZM92.744 154.624H93.992C93.992 154.624 93.976 155.04 93.96 155.2C93.736 160.16 93.512 162.016 92.936 162.624C92.616 163.024 92.264 163.136 91.704 163.184C91.176 163.232 90.168 163.216 89.16 163.168C89.144 162.8 88.984 162.304 88.76 161.952C89.816 162.048 90.808 162.064 91.192 162.064C91.512 162.064 91.704 162.032 91.864 161.856C92.296 161.424 92.536 159.6 92.744 154.848V154.624ZM86.184 148.896L87.448 149.264C86.296 151.968 84.408 154.352 82.392 155.888C82.168 155.632 81.656 155.168 81.352 154.944C83.4 153.568 85.176 151.36 86.184 148.896ZM91.768 148.864C92.808 151.008 94.872 153.44 96.616 154.672C96.296 154.928 95.848 155.408 95.608 155.744C93.832 154.304 91.816 151.712 90.616 149.328L91.768 148.864ZM87.368 154.944H88.648C88.28 158.448 87.448 161.76 82.984 163.36C82.84 163.056 82.488 162.576 82.216 162.32C86.408 160.928 87.048 157.968 87.368 154.944ZM106.488 150.496H107.656V159.36H106.488V150.496ZM110.408 148.864H111.592V161.696C111.592 162.512 111.384 162.88 110.872 163.072C110.344 163.28 109.448 163.312 107.976 163.296C107.912 162.976 107.72 162.432 107.528 162.08C108.68 162.128 109.672 162.112 109.976 162.096C110.28 162.096 110.408 162 110.408 161.696V148.864ZM100.552 156.272H104.344V157.344H100.552V156.272ZM103.832 156.272H104.952C104.952 156.272 104.952 156.624 104.936 156.784C104.76 160.8 104.6 162.256 104.152 162.768C103.896 163.088 103.592 163.184 103.128 163.232C102.712 163.264 101.928 163.264 101.144 163.216C101.128 162.896 101 162.448 100.808 162.16C101.608 162.24 102.36 162.24 102.648 162.24C102.92 162.24 103.064 162.208 103.208 162.064C103.512 161.728 103.672 160.304 103.832 156.48V156.272ZM99.608 150.384V153.456H103.704V150.384H99.608ZM98.52 149.312H104.856V154.56H98.52V149.312ZM100.28 154.144H101.464C101.272 157.52 100.824 161.264 98.36 163.328C98.184 163.04 97.816 162.672 97.528 162.496C99.8 160.656 100.136 157.152 100.28 154.144ZM118.168 154.064L128.088 152.816L128.264 153.952L118.344 155.2L118.168 154.064ZM124.424 149.472L125.304 148.896C126.264 149.664 127.4 150.752 127.944 151.488L127.016 152.128C126.504 151.408 125.368 150.272 124.424 149.472ZM117.992 148.736L119.128 149.104C117.928 151.904 116.024 154.656 114.024 156.448C113.896 156.16 113.544 155.552 113.32 155.28C115.176 153.728 116.936 151.264 117.992 148.736ZM116.184 152.992L117.4 151.792V151.808V163.264H116.184V152.992ZM121.752 148.8H122.968C123.192 155.984 124.296 161.632 126.712 161.856C127.16 161.888 127.432 160.944 127.592 159.072C127.832 159.312 128.36 159.616 128.584 159.712C128.248 162.496 127.592 163.312 126.76 163.28C123.16 163.024 122.104 156.976 121.752 148.8ZM129.768 149.328H135.64V150.432H129.768V149.328ZM131.416 154.32H135.048V161.232H131.416V160.176H133.976V155.376H131.416V154.32ZM131.704 149.856L132.856 150.032C132.36 153.392 131.544 156.544 130.088 158.64C129.976 158.384 129.608 157.808 129.384 157.552C130.648 155.728 131.32 152.864 131.704 149.856ZM130.888 154.32H131.944V162.56H130.888V154.32ZM136.92 151.76H143.4V152.736H136.92V151.76ZM136.92 154.224H143.4V155.216H136.92V154.224ZM136.328 156.736H143.352V157.792H136.328V156.736ZM139.64 149.792H140.728V157.184H139.64V149.792ZM137.656 159.072L138.488 158.944C138.68 159.904 138.792 161.104 138.776 161.888L137.896 162.032C137.928 161.232 137.832 160.016 137.656 159.072ZM139.352 158.944L140.136 158.736C140.472 159.504 140.776 160.528 140.904 161.184L140.072 161.424C139.976 160.768 139.672 159.728 139.352 158.944ZM140.968 158.592L141.608 158.32C142.072 158.896 142.536 159.696 142.744 160.192L142.024 160.528C141.832 160 141.384 159.2 140.968 158.592ZM136.104 158.576L137.016 158.8C136.856 160.192 136.552 161.68 135.784 162.56L134.936 162.08C135.64 161.28 135.96 159.888 136.104 158.576ZM136.328 149.248H143.8V150.304H137.432V157.264H136.328V149.248ZM143 156.736H144.104C144.104 156.736 144.104 157.072 144.088 157.232C143.912 160.992 143.736 162.368 143.32 162.832C143.064 163.136 142.792 163.248 142.36 163.28C141.992 163.312 141.304 163.312 140.6 163.28C140.584 162.96 140.472 162.528 140.296 162.224C140.984 162.288 141.624 162.304 141.864 162.304C142.12 162.304 142.248 162.272 142.376 162.128C142.664 161.808 142.856 160.496 143 156.928V156.736Z" fill="#676A6C"/>
<path d="M148.455 156.909L148.545 154.409L146.432 155.75L145.886 154.795L148.114 153.636L145.886 152.477L146.432 151.523L148.545 152.864L148.455 150.364H149.545L149.455 152.864L151.568 151.523L152.114 152.477L149.886 153.636L152.114 154.795L151.568 155.75L149.455 154.409L149.545 156.909H148.455Z" fill="#F14C41"/>
<rect x="422.5" y="171.5" width="368" height="37" rx="7.5" fill="white"/>
<rect x="422.5" y="171.5" width="368" height="37" rx="7.5" stroke="#999999"/>
<path d="M435.824 188.38V194.044H434.688V189.5H432.72V188.38H435.824ZM435.824 193.564C436.576 194.764 438 195.308 439.904 195.388C441.712 195.468 445.472 195.42 447.44 195.292C447.296 195.548 447.104 196.092 447.056 196.428C445.232 196.508 441.744 196.54 439.92 196.476C437.792 196.396 436.336 195.82 435.328 194.556C434.64 195.244 433.92 195.932 433.152 196.652L432.528 195.516C433.216 194.988 434.064 194.268 434.8 193.564H435.824ZM432.8 183.052L433.728 182.444C434.672 183.212 435.744 184.316 436.192 185.116L435.184 185.804C434.768 185.004 433.728 183.852 432.8 183.052ZM437.008 188.828H446.72V189.756H437.008V188.828ZM436.496 191.292H447.216V192.236H436.496V191.292ZM439.376 187.676H440.528V191.756H439.376V187.676ZM443.152 187.676H444.288V191.756H443.152V187.676ZM437.408 184.572H440.224V183.532H436.8V182.7H441.28V185.42H437.408V184.572ZM437.072 184.572H438.096V186.236C438.096 186.54 438.176 186.604 438.688 186.604C438.912 186.604 440.128 186.604 440.432 186.604C440.816 186.604 440.896 186.508 440.944 185.804C441.136 185.964 441.536 186.092 441.824 186.14C441.712 187.18 441.408 187.452 440.592 187.452C440.336 187.452 438.816 187.452 438.576 187.452C437.392 187.452 437.072 187.212 437.072 186.252V184.572ZM442.688 184.572H445.456V183.532H442.048V182.7H446.496V185.42H442.688V184.572ZM442.336 184.572H443.36V186.236C443.36 186.54 443.456 186.604 444 186.604C444.256 186.604 445.568 186.604 445.888 186.604C446.288 186.604 446.368 186.508 446.416 185.756C446.624 185.9 447.024 186.028 447.312 186.092C447.2 187.18 446.896 187.452 446.032 187.452C445.776 187.452 444.144 187.452 443.888 187.452C442.672 187.452 442.336 187.212 442.336 186.236V184.572ZM442.864 192.956L443.728 192.428C444.896 192.988 446.208 193.772 446.976 194.364L445.792 194.892C445.152 194.3 443.968 193.532 442.864 192.956ZM439.936 192.396L440.992 192.764C440.176 193.548 438.88 194.332 437.808 194.844C437.632 194.636 437.184 194.252 436.928 194.092C438.016 193.66 439.216 193.052 439.936 192.396ZM460.256 183.58V185.276H461.888V183.58H460.256ZM457.696 183.58V185.276H459.296V183.58H457.696ZM455.216 183.58V185.276H456.736V183.58H455.216ZM454.224 182.716H462.896V186.14H454.224V182.716ZM454.4 187.132H462.576V188.044H454.4V187.132ZM453.6 189.18H463.376V190.14H453.6V189.18ZM453.76 191.66H463.152V192.604H453.76V191.66ZM454.08 193.756H462.8V194.684H454.08V193.756ZM457.856 185.916H459.008V189.564H457.856V185.916ZM457.856 192.076H459.008V196.908H457.856V192.076ZM455.6 190.284L456.592 190.06C456.848 190.508 457.136 191.132 457.232 191.548L456.192 191.82C456.096 191.42 455.856 190.764 455.6 190.284ZM460.384 189.9L461.504 190.204C461.184 190.796 460.832 191.404 460.56 191.82L459.648 191.564C459.904 191.084 460.224 190.364 460.384 189.9ZM448.432 190.364C449.68 190.012 451.552 189.436 453.376 188.844L453.536 189.948C451.872 190.524 450.112 191.1 448.752 191.532L448.432 190.364ZM448.656 185.292H453.52V186.412H448.656V185.292ZM450.672 182.076H451.792V195.388C451.792 196.06 451.632 196.38 451.232 196.572C450.864 196.764 450.24 196.796 449.232 196.796C449.184 196.508 449.04 196.012 448.88 195.676C449.584 195.692 450.192 195.692 450.384 195.676C450.576 195.676 450.672 195.628 450.672 195.388V182.076ZM466.205 195.591C465.924 195.591 465.684 195.491 465.483 195.29C465.282 195.089 465.182 194.848 465.182 194.568C465.182 194.288 465.282 194.047 465.483 193.847C465.684 193.646 465.924 193.545 466.205 193.545C466.485 193.545 466.725 193.646 466.926 193.847C467.127 194.047 467.227 194.288 467.227 194.568C467.227 194.754 467.18 194.924 467.085 195.08C466.994 195.235 466.871 195.36 466.716 195.455C466.564 195.545 466.394 195.591 466.205 195.591ZM470.611 195.591C470.33 195.591 470.09 195.491 469.889 195.29C469.688 195.089 469.588 194.848 469.588 194.568C469.588 194.288 469.688 194.047 469.889 193.847C470.09 193.646 470.33 193.545 470.611 193.545C470.891 193.545 471.132 193.646 471.332 193.847C471.533 194.047 471.634 194.288 471.634 194.568C471.634 194.754 471.586 194.924 471.491 195.08C471.401 195.235 471.277 195.36 471.122 195.455C470.971 195.545 470.8 195.591 470.611 195.591ZM475.017 195.591C474.737 195.591 474.496 195.491 474.295 195.29C474.095 195.089 473.994 194.848 473.994 194.568C473.994 194.288 474.095 194.047 474.295 193.847C474.496 193.646 474.737 193.545 475.017 193.545C475.297 193.545 475.538 193.646 475.739 193.847C475.939 194.047 476.04 194.288 476.04 194.568C476.04 194.754 475.992 194.924 475.898 195.08C475.807 195.235 475.684 195.36 475.528 195.455C475.377 195.545 475.206 195.591 475.017 195.591ZM479.423 195.591C479.143 195.591 478.902 195.491 478.702 195.29C478.501 195.089 478.401 194.848 478.401 194.568C478.401 194.288 478.501 194.047 478.702 193.847C478.902 193.646 479.143 193.545 479.423 193.545C479.704 193.545 479.944 193.646 480.145 193.847C480.346 194.047 480.446 194.288 480.446 194.568C480.446 194.754 480.399 194.924 480.304 195.08C480.213 195.235 480.09 195.36 479.935 195.455C479.783 195.545 479.613 195.591 479.423 195.591Z" fill="#999999"/>
<path d="M776 186.8C776 187.044 775.889 187.255 775.666 187.433L767.791 193.733C767.568 193.911 767.305 194 767 194C766.695 194 766.432 193.911 766.209 193.733L758.334 187.433C758.111 187.255 758 187.044 758 186.8C758 186.556 758.111 186.345 758.334 186.167C758.557 185.989 758.82 185.9 759.125 185.9H774.875C775.18 185.9 775.443 185.989 775.666 186.167C775.889 186.345 776 186.556 776 186.8Z" fill="#676A6C"/>
<path d="M423.36 154.352H436.72V157.184H435.52V155.424H424.512V157.184H423.36V154.352ZM428.832 149.392L429.84 149.776C429.344 150.432 428.816 151.104 428.384 151.568L427.648 151.216C428.048 150.72 428.56 149.92 428.832 149.392ZM425.984 152.032L426.768 151.376C427.584 151.904 428.72 152.688 429.312 153.184L428.512 153.92C427.952 153.424 426.832 152.608 425.984 152.032ZM424.24 157.392H434.608V158.496H424.24V157.392ZM426.208 148.56H427.28C427.136 151.824 426.528 153.44 423.376 154.32C423.264 154.064 422.976 153.648 422.768 153.44C425.616 152.72 426.08 151.408 426.208 148.56ZM434.272 157.392H435.488C435.488 157.392 435.472 157.744 435.456 157.936C435.232 161.04 434.992 162.304 434.512 162.784C434.208 163.104 433.872 163.216 433.328 163.248C432.832 163.28 431.872 163.28 430.864 163.216C430.832 162.864 430.688 162.384 430.464 162.08C431.488 162.16 432.48 162.176 432.848 162.176C433.168 162.176 433.36 162.144 433.52 162.016C433.856 161.712 434.08 160.512 434.272 157.568V157.392ZM428.912 155.664H430.176C429.904 160 429.056 162.256 423.52 163.28C423.424 162.976 423.12 162.464 422.88 162.208C428.032 161.344 428.672 159.504 428.912 155.664ZM424.368 149.424L425.184 149.696C424.912 150.512 424.496 151.392 423.76 151.92L423.024 151.424C423.664 150.976 424.144 150.16 424.368 149.424ZM435.824 149.392L436.864 149.792C436.336 150.464 435.712 151.2 435.248 151.696L434.48 151.328C434.928 150.8 435.52 149.952 435.824 149.392ZM432.672 151.968L433.408 151.264C434.544 151.952 436.096 152.976 436.912 153.6L436.128 154.4C435.36 153.76 433.808 152.704 432.672 151.968ZM432.896 148.56H434C433.856 151.664 433.248 153.296 430.272 154.208C430.16 153.936 429.856 153.504 429.632 153.312C432.32 152.576 432.784 151.264 432.896 148.56ZM431.024 149.392L431.84 149.664C431.584 150.512 431.168 151.36 430.384 151.872L429.632 151.376C430.32 150.944 430.8 150.16 431.024 149.392ZM447.552 154.064H448.768V163.296H447.552V154.064ZM442.88 156.416H453.264V157.52H442.88V156.416ZM449.104 156.848C450.064 158.768 451.936 160.704 453.68 161.664C453.424 161.888 453.04 162.32 452.832 162.608C451.088 161.488 449.232 159.328 448.176 157.2L449.104 156.848ZM447.28 156.768L448.224 157.12C447.152 159.328 445.168 161.472 443.264 162.576C443.056 162.288 442.688 161.872 442.432 161.632C444.304 160.704 446.272 158.72 447.28 156.768ZM445.216 150.4V153.328H451.184V150.4H445.216ZM444.08 149.328H452.368V154.416H444.08V149.328ZM442.416 148.608L443.552 148.96C442.464 151.664 440.784 154.352 439.04 156.128C438.912 155.856 438.576 155.232 438.352 154.944C439.952 153.424 441.488 151.04 442.416 148.608ZM440.752 152.736L441.888 151.6L441.904 151.616V163.248H440.752V152.736ZM463.328 161.328L464.096 160.512C465.92 161.088 467.904 161.856 469.12 162.448L468.128 163.312C467.008 162.72 465.136 161.936 463.328 161.328ZM454.848 159.28H469.168V160.336H454.848V159.28ZM455.872 156.384H468.224V157.44H455.872V156.384ZM458.704 154.608H459.904V159.744H458.704V154.608ZM461.344 149.68H462.528V154.464H461.344V149.68ZM464.08 154.608H465.296V159.744H464.08V154.608ZM457.568 152.464V153.92H466.416V152.464H457.568ZM457.568 150.144V151.568H466.416V150.144H457.568ZM456.416 149.2H467.632V154.864H456.416V149.2ZM459.712 160.528L460.784 161.248C459.472 162.064 457.424 162.864 455.728 163.312C455.552 163.056 455.216 162.64 454.96 162.4C456.608 161.984 458.672 161.216 459.712 160.528ZM471.104 159.024H478.4V159.936H471.104V159.024ZM470.672 151.312H478.656V152.24H470.672V151.312ZM474.144 149.856H475.248V161.632H474.144V149.856ZM470.656 161.664C472.608 161.488 475.6 161.2 478.464 160.896L478.48 161.84C475.76 162.16 472.864 162.496 470.832 162.704L470.656 161.664ZM472.144 156.032V157.216H477.328V156.032H472.144ZM472.144 154.08V155.232H477.328V154.08H472.144ZM471.136 153.248H478.352V158.048H471.136V153.248ZM477.776 148.72L478.384 149.648C476.496 150.064 473.52 150.336 471.12 150.416C471.072 150.16 470.96 149.76 470.832 149.52C473.216 149.392 476.128 149.104 477.776 148.72ZM478.544 152.304H484.32V153.424H478.544V152.304ZM483.856 152.304H485.008C485.008 152.304 484.992 152.752 484.992 152.912C484.816 159.664 484.656 161.904 484.128 162.592C483.84 163.008 483.52 163.152 483.04 163.2C482.592 163.248 481.824 163.248 481.088 163.2C481.056 162.864 480.928 162.368 480.736 162.048C481.52 162.112 482.224 162.128 482.544 162.128C482.8 162.128 482.96 162.08 483.104 161.872C483.504 161.376 483.68 159.072 483.856 152.592V152.304ZM480.48 148.768H481.632C481.616 155.136 481.6 160.512 477.776 163.376C477.584 163.088 477.168 162.704 476.88 162.512C480.544 159.888 480.464 154.816 480.48 148.768ZM488.784 149.456H501.088V150.56H488.784V149.456ZM488.096 149.456H489.28V154.096C489.28 156.736 489.056 160.624 487.584 163.248C487.36 163.056 486.848 162.752 486.544 162.64C487.952 160.128 488.096 156.592 488.096 154.08V149.456ZM491.904 155.44V156.944H498.56V155.44H491.904ZM491.904 153.088V154.544H498.56V153.088H491.904ZM490.72 152.128H499.776V157.888H490.72V152.128ZM494.624 157.296H495.792V161.984C495.792 162.624 495.648 162.944 495.184 163.104C494.688 163.296 493.904 163.296 492.672 163.296C492.624 162.976 492.448 162.544 492.304 162.224C493.248 162.256 494.064 162.256 494.304 162.24C494.56 162.24 494.624 162.16 494.624 161.968V157.296ZM494.496 150.32L495.888 150.464C495.648 151.296 495.36 152.176 495.12 152.752L493.936 152.592C494.144 151.952 494.4 150.976 494.496 150.32ZM497.168 159.248L498.08 158.656C499.296 159.584 500.72 160.928 501.36 161.872L500.384 162.544C499.76 161.6 498.384 160.208 497.168 159.248ZM491.92 158.72L493.088 159.04C492.24 160.4 490.976 161.744 489.808 162.608C489.584 162.4 489.104 162.064 488.816 161.904C490 161.12 491.184 159.904 491.92 158.72ZM505.376 153.68H514.608V154.768H505.376V153.68ZM509.392 151.136H510.528C510.368 155.824 509.92 158.992 505.904 160.608C505.776 160.336 505.44 159.904 505.184 159.68C508.944 158.256 509.264 155.424 509.392 151.136ZM510.624 154.288C511.168 156.928 512.416 158.768 514.768 159.584C514.512 159.792 514.176 160.256 514.016 160.56C511.52 159.552 510.24 157.504 509.632 154.448L510.624 154.288ZM503.312 149.312H516.72V163.28H515.488V150.464H504.512V163.28H503.312V149.312ZM504.016 161.408H515.984V162.56H504.016V161.408Z" fill="#676A6C"/>
<rect x="422.5" y="249.5" width="368" height="37" rx="7.5" fill="white"/>
<rect x="422.5" y="249.5" width="368" height="37" rx="7.5" stroke="#999999"/>
<path d="M432.409 261.864H434.023L437.25 267.295H437.386L440.614 261.864H442.227L438.023 268.705V273.5H436.614V268.705L432.409 261.864ZM443.05 261.864H444.663L447.891 267.295H448.027L451.254 261.864H452.868L448.663 268.705V273.5H447.254V268.705L443.05 261.864ZM453.69 261.864H455.304L458.531 267.295H458.668L461.895 261.864H463.509L459.304 268.705V273.5H457.895V268.705L453.69 261.864ZM464.331 261.864H465.945L469.172 267.295H469.308L472.536 261.864H474.149L469.945 268.705V273.5H468.536V268.705L464.331 261.864ZM479.903 261.318L476.153 275.25H474.926L478.676 261.318H479.903ZM481.675 261.864H483.357L487.311 271.523H487.447L491.402 261.864H493.084V273.5H491.766V264.659H491.652L488.016 273.5H486.743L483.107 264.659H482.993V273.5H481.675V261.864ZM495.909 261.864H497.591L501.545 271.523H501.682L505.636 261.864H507.318V273.5H506V264.659H505.886L502.25 273.5H500.977L497.341 264.659H497.227V273.5H495.909V261.864ZM514.075 261.318L510.325 275.25H509.098L512.848 261.318H514.075ZM519.438 273.5H515.847V261.864H519.597C520.725 261.864 521.691 262.097 522.494 262.562C523.297 263.025 523.913 263.689 524.341 264.557C524.769 265.42 524.983 266.455 524.983 267.659C524.983 268.871 524.767 269.915 524.335 270.79C523.903 271.661 523.275 272.331 522.449 272.801C521.623 273.267 520.619 273.5 519.438 273.5ZM517.256 272.25H519.347C520.309 272.25 521.106 272.064 521.739 271.693C522.371 271.322 522.843 270.794 523.153 270.108C523.464 269.422 523.619 268.606 523.619 267.659C523.619 266.72 523.466 265.911 523.159 265.233C522.852 264.551 522.394 264.028 521.784 263.665C521.174 263.297 520.415 263.114 519.506 263.114H517.256V272.25ZM530.938 273.5H527.347V261.864H531.097C532.225 261.864 533.191 262.097 533.994 262.562C534.797 263.025 535.413 263.689 535.841 264.557C536.269 265.42 536.483 266.455 536.483 267.659C536.483 268.871 536.267 269.915 535.835 270.79C535.403 271.661 534.775 272.331 533.949 272.801C533.123 273.267 532.119 273.5 530.938 273.5ZM528.756 272.25H530.847C531.809 272.25 532.606 272.064 533.239 271.693C533.871 271.322 534.343 270.794 534.653 270.108C534.964 269.422 535.119 268.606 535.119 267.659C535.119 266.72 534.966 265.911 534.659 265.233C534.352 264.551 533.894 264.028 533.284 263.665C532.674 263.297 531.915 263.114 531.006 263.114H528.756V272.25Z" fill="#999999"/>
<g clip-path="url(#clip3_326_4123)">
<path d="M758.385 275.214H761.5V272.321H758.385V275.214ZM762.192 275.214H765.654V272.321H762.192V275.214ZM758.385 271.679H761.5V268.464H758.385V271.679ZM762.192 271.679H765.654V268.464H762.192V271.679ZM758.385 267.821H761.5V264.929H758.385V267.821ZM766.346 275.214H769.808V272.321H766.346V275.214ZM762.192 267.821H765.654V264.929H762.192V267.821ZM770.5 275.214H773.615V272.321H770.5V275.214ZM766.346 271.679H769.808V268.464H766.346V271.679ZM762.538 263V260.107C762.538 260.02 762.504 259.945 762.436 259.881C762.367 259.818 762.286 259.786 762.192 259.786H761.5C761.406 259.786 761.325 259.818 761.257 259.881C761.188 259.945 761.154 260.02 761.154 260.107V263C761.154 263.087 761.188 263.162 761.257 263.226C761.325 263.29 761.406 263.321 761.5 263.321H762.192C762.286 263.321 762.367 263.29 762.436 263.226C762.504 263.162 762.538 263.087 762.538 263ZM770.5 271.679H773.615V268.464H770.5V271.679ZM766.346 267.821H769.808V264.929H766.346V267.821ZM770.5 267.821H773.615V264.929H770.5V267.821ZM770.846 263V260.107C770.846 260.02 770.812 259.945 770.743 259.881C770.675 259.818 770.594 259.786 770.5 259.786H769.808C769.714 259.786 769.633 259.818 769.564 259.881C769.496 259.945 769.462 260.02 769.462 260.107V263C769.462 263.087 769.496 263.162 769.564 263.226C769.633 263.29 769.714 263.321 769.808 263.321H770.5C770.594 263.321 770.675 263.29 770.743 263.226C770.812 263.162 770.846 263.087 770.846 263ZM775 262.357V275.214C775 275.562 774.863 275.864 774.589 276.118C774.315 276.373 773.99 276.5 773.615 276.5H758.385C758.01 276.5 757.685 276.373 757.411 276.118C757.137 275.864 757 275.562 757 275.214V262.357C757 262.009 757.137 261.708 757.411 261.453C757.685 261.199 758.01 261.071 758.385 261.071H759.769V260.107C759.769 259.665 759.939 259.287 760.278 258.972C760.617 258.657 761.024 258.5 761.5 258.5H762.192C762.668 258.5 763.076 258.657 763.415 258.972C763.754 259.287 763.923 259.665 763.923 260.107V261.071H768.077V260.107C768.077 259.665 768.246 259.287 768.585 258.972C768.924 258.657 769.332 258.5 769.808 258.5H770.5C770.976 258.5 771.383 258.657 771.722 258.972C772.061 259.287 772.231 259.665 772.231 260.107V261.071H773.615C773.99 261.071 774.315 261.199 774.589 261.453C774.863 261.708 775 262.009 775 262.357Z" fill="#676A6C"/>
</g>
<path d="M423.36 232.352H436.72V235.184H435.52V233.424H424.512V235.184H423.36V232.352ZM428.832 227.392L429.84 227.776C429.344 228.432 428.816 229.104 428.384 229.568L427.648 229.216C428.048 228.72 428.56 227.92 428.832 227.392ZM425.984 230.032L426.768 229.376C427.584 229.904 428.72 230.688 429.312 231.184L428.512 231.92C427.952 231.424 426.832 230.608 425.984 230.032ZM424.24 235.392H434.608V236.496H424.24V235.392ZM426.208 226.56H427.28C427.136 229.824 426.528 231.44 423.376 232.32C423.264 232.064 422.976 231.648 422.768 231.44C425.616 230.72 426.08 229.408 426.208 226.56ZM434.272 235.392H435.488C435.488 235.392 435.472 235.744 435.456 235.936C435.232 239.04 434.992 240.304 434.512 240.784C434.208 241.104 433.872 241.216 433.328 241.248C432.832 241.28 431.872 241.28 430.864 241.216C430.832 240.864 430.688 240.384 430.464 240.08C431.488 240.16 432.48 240.176 432.848 240.176C433.168 240.176 433.36 240.144 433.52 240.016C433.856 239.712 434.08 238.512 434.272 235.568V235.392ZM428.912 233.664H430.176C429.904 238 429.056 240.256 423.52 241.28C423.424 240.976 423.12 240.464 422.88 240.208C428.032 239.344 428.672 237.504 428.912 233.664ZM424.368 227.424L425.184 227.696C424.912 228.512 424.496 229.392 423.76 229.92L423.024 229.424C423.664 228.976 424.144 228.16 424.368 227.424ZM435.824 227.392L436.864 227.792C436.336 228.464 435.712 229.2 435.248 229.696L434.48 229.328C434.928 228.8 435.52 227.952 435.824 227.392ZM432.672 229.968L433.408 229.264C434.544 229.952 436.096 230.976 436.912 231.6L436.128 232.4C435.36 231.76 433.808 230.704 432.672 229.968ZM432.896 226.56H434C433.856 229.664 433.248 231.296 430.272 232.208C430.16 231.936 429.856 231.504 429.632 231.312C432.32 230.576 432.784 229.264 432.896 226.56ZM431.024 227.392L431.84 227.664C431.584 228.512 431.168 229.36 430.384 229.872L429.632 229.376C430.32 228.944 430.8 228.16 431.024 227.392ZM447.552 232.064H448.768V241.296H447.552V232.064ZM442.88 234.416H453.264V235.52H442.88V234.416ZM449.104 234.848C450.064 236.768 451.936 238.704 453.68 239.664C453.424 239.888 453.04 240.32 452.832 240.608C451.088 239.488 449.232 237.328 448.176 235.2L449.104 234.848ZM447.28 234.768L448.224 235.12C447.152 237.328 445.168 239.472 443.264 240.576C443.056 240.288 442.688 239.872 442.432 239.632C444.304 238.704 446.272 236.72 447.28 234.768ZM445.216 228.4V231.328H451.184V228.4H445.216ZM444.08 227.328H452.368V232.416H444.08V227.328ZM442.416 226.608L443.552 226.96C442.464 229.664 440.784 232.352 439.04 234.128C438.912 233.856 438.576 233.232 438.352 232.944C439.952 231.424 441.488 229.04 442.416 226.608ZM440.752 230.736L441.888 229.6L441.904 229.616V241.248H440.752V230.736ZM457.328 229.68H468.416V230.848H457.328V229.68ZM456.624 234.368H467.84V235.52H456.624V234.368ZM454.88 239.6H469.168V240.768H454.88V239.6ZM461.408 226.576H462.64V240.192H461.408V226.576ZM457.808 226.832L459.04 227.104C458.336 229.584 457.216 231.952 455.936 233.488C455.696 233.28 455.152 232.928 454.848 232.768C456.16 231.344 457.2 229.12 457.808 226.832ZM470.688 228.736H478.704V229.824H470.688V228.736ZM474.048 226.624H475.216V229.248H474.048V226.624ZM472.624 230.368L473.76 230.656C473.216 231.968 472.336 233.328 471.488 234.224C471.28 234.032 470.816 233.664 470.544 233.504C471.392 232.704 472.16 231.536 472.624 230.368ZM475.648 233.264L476.832 233.536C475.792 236.912 474 239.584 471.568 241.312C471.392 241.056 470.944 240.608 470.672 240.384C473.056 238.864 474.752 236.336 475.648 233.264ZM475.488 230.848L476.384 230.352C477.088 231.088 477.872 232.128 478.192 232.816L477.232 233.408C476.912 232.704 476.176 231.632 475.488 230.848ZM471.92 234.544L472.8 233.84C474.608 235.328 476.688 237.44 477.6 238.912L476.624 239.744C475.76 238.256 473.728 236.08 471.92 234.544ZM479.664 229.552H485.36V230.672H479.664V229.552ZM480.144 226.56L481.328 226.736C480.8 229.84 479.904 232.752 478.592 234.656C478.384 234.432 477.904 234.016 477.632 233.824C478.912 232.096 479.696 229.376 480.144 226.56ZM483.216 230.16L484.4 230.288C483.632 235.808 481.936 239.248 477.92 241.328C477.792 241.056 477.44 240.528 477.216 240.288C481.024 238.496 482.56 235.264 483.216 230.16ZM480.304 230.528C480.992 234.944 482.496 238.72 485.44 240.304C485.152 240.544 484.784 240.992 484.608 241.296C481.52 239.456 480.032 235.536 479.264 230.704L480.304 230.528ZM488.816 227.648H499.296V241.04H498.032V228.864H490.048V241.104H488.816V227.648ZM489.632 233.2H498.56V234.384H489.632V233.2ZM489.616 238.864H498.592V240.064H489.616V238.864ZM511.76 227.36H516.208V228.464H511.76V227.36ZM511.76 231.04H516.208V232.112H511.76V231.04ZM511.744 234.768H516.24V235.856H511.744V234.768ZM515.664 227.36H516.832V239.76C516.832 240.448 516.672 240.816 516.208 241.008C515.76 241.2 515.008 241.232 513.824 241.232C513.792 240.896 513.616 240.368 513.456 240.064C514.304 240.08 515.104 240.08 515.344 240.064C515.584 240.064 515.664 239.984 515.664 239.744V227.36ZM511.264 227.36H512.4V233.168C512.4 235.632 512.208 239.088 510.768 241.36C510.56 241.136 510.08 240.784 509.808 240.672C511.152 238.528 511.264 235.488 511.264 233.168V227.36ZM502.816 228.704H510.48V229.76H502.816V228.704ZM504.704 231.184H508.752V232.16H504.704V231.184ZM504.704 233.728H508.768V234.688H504.704V233.728ZM502.608 236.304H510.48V237.376H502.608V236.304ZM504.176 226.752H505.28V236.736H504.176V226.752ZM508.192 226.752H509.296V236.736H508.192V226.752ZM504.832 237.728L505.984 238.048C505.392 239.264 504.464 240.496 503.6 241.296C503.376 241.104 502.912 240.752 502.624 240.592C503.52 239.872 504.352 238.8 504.832 237.728ZM507.136 238.224L508.064 237.728C508.688 238.448 509.44 239.44 509.76 240.096L508.784 240.672C508.48 240.032 507.76 238.976 507.136 238.224Z" fill="#676A6C"/>
<rect x="422.5" y="92.5" width="368" height="37" rx="7.5" fill="white"/>
<rect x="422.5" y="92.5" width="368" height="37" rx="7.5" stroke="#999999"/>
<path d="M435.824 109.38V115.044H434.688V110.5H432.72V109.38H435.824ZM435.824 114.564C436.576 115.764 438 116.308 439.904 116.388C441.712 116.468 445.472 116.42 447.44 116.292C447.296 116.548 447.104 117.092 447.056 117.428C445.232 117.508 441.744 117.54 439.92 117.476C437.792 117.396 436.336 116.82 435.328 115.556C434.64 116.244 433.92 116.932 433.152 117.652L432.528 116.516C433.216 115.988 434.064 115.268 434.8 114.564H435.824ZM432.8 104.052L433.728 103.444C434.672 104.212 435.744 105.316 436.192 106.116L435.184 106.804C434.768 106.004 433.728 104.852 432.8 104.052ZM437.008 109.828H446.72V110.756H437.008V109.828ZM436.496 112.292H447.216V113.236H436.496V112.292ZM439.376 108.676H440.528V112.756H439.376V108.676ZM443.152 108.676H444.288V112.756H443.152V108.676ZM437.408 105.572H440.224V104.532H436.8V103.7H441.28V106.42H437.408V105.572ZM437.072 105.572H438.096V107.236C438.096 107.54 438.176 107.604 438.688 107.604C438.912 107.604 440.128 107.604 440.432 107.604C440.816 107.604 440.896 107.508 440.944 106.804C441.136 106.964 441.536 107.092 441.824 107.14C441.712 108.18 441.408 108.452 440.592 108.452C440.336 108.452 438.816 108.452 438.576 108.452C437.392 108.452 437.072 108.212 437.072 107.252V105.572ZM442.688 105.572H445.456V104.532H442.048V103.7H446.496V106.42H442.688V105.572ZM442.336 105.572H443.36V107.236C443.36 107.54 443.456 107.604 444 107.604C444.256 107.604 445.568 107.604 445.888 107.604C446.288 107.604 446.368 107.508 446.416 106.756C446.624 106.9 447.024 107.028 447.312 107.092C447.2 108.18 446.896 108.452 446.032 108.452C445.776 108.452 444.144 108.452 443.888 108.452C442.672 108.452 442.336 108.212 442.336 107.236V105.572ZM442.864 113.956L443.728 113.428C444.896 113.988 446.208 114.772 446.976 115.364L445.792 115.892C445.152 115.3 443.968 114.532 442.864 113.956ZM439.936 113.396L440.992 113.764C440.176 114.548 438.88 115.332 437.808 115.844C437.632 115.636 437.184 115.252 436.928 115.092C438.016 114.66 439.216 114.052 439.936 113.396ZM460.256 104.58V106.276H461.888V104.58H460.256ZM457.696 104.58V106.276H459.296V104.58H457.696ZM455.216 104.58V106.276H456.736V104.58H455.216ZM454.224 103.716H462.896V107.14H454.224V103.716ZM454.4 108.132H462.576V109.044H454.4V108.132ZM453.6 110.18H463.376V111.14H453.6V110.18ZM453.76 112.66H463.152V113.604H453.76V112.66ZM454.08 114.756H462.8V115.684H454.08V114.756ZM457.856 106.916H459.008V110.564H457.856V106.916ZM457.856 113.076H459.008V117.908H457.856V113.076ZM455.6 111.284L456.592 111.06C456.848 111.508 457.136 112.132 457.232 112.548L456.192 112.82C456.096 112.42 455.856 111.764 455.6 111.284ZM460.384 110.9L461.504 111.204C461.184 111.796 460.832 112.404 460.56 112.82L459.648 112.564C459.904 112.084 460.224 111.364 460.384 110.9ZM448.432 111.364C449.68 111.012 451.552 110.436 453.376 109.844L453.536 110.948C451.872 111.524 450.112 112.1 448.752 112.532L448.432 111.364ZM448.656 106.292H453.52V107.412H448.656V106.292ZM450.672 103.076H451.792V116.388C451.792 117.06 451.632 117.38 451.232 117.572C450.864 117.764 450.24 117.796 449.232 117.796C449.184 117.508 449.04 117.012 448.88 116.676C449.584 116.692 450.192 116.692 450.384 116.676C450.576 116.676 450.672 116.628 450.672 116.388V103.076ZM466.205 116.591C465.924 116.591 465.684 116.491 465.483 116.29C465.282 116.089 465.182 115.848 465.182 115.568C465.182 115.288 465.282 115.047 465.483 114.847C465.684 114.646 465.924 114.545 466.205 114.545C466.485 114.545 466.725 114.646 466.926 114.847C467.127 115.047 467.227 115.288 467.227 115.568C467.227 115.754 467.18 115.924 467.085 116.08C466.994 116.235 466.871 116.36 466.716 116.455C466.564 116.545 466.394 116.591 466.205 116.591ZM470.611 116.591C470.33 116.591 470.09 116.491 469.889 116.29C469.688 116.089 469.588 115.848 469.588 115.568C469.588 115.288 469.688 115.047 469.889 114.847C470.09 114.646 470.33 114.545 470.611 114.545C470.891 114.545 471.132 114.646 471.332 114.847C471.533 115.047 471.634 115.288 471.634 115.568C471.634 115.754 471.586 115.924 471.491 116.08C471.401 116.235 471.277 116.36 471.122 116.455C470.971 116.545 470.8 116.591 470.611 116.591ZM475.017 116.591C474.737 116.591 474.496 116.491 474.295 116.29C474.095 116.089 473.994 115.848 473.994 115.568C473.994 115.288 474.095 115.047 474.295 114.847C474.496 114.646 474.737 114.545 475.017 114.545C475.297 114.545 475.538 114.646 475.739 114.847C475.939 115.047 476.04 115.288 476.04 115.568C476.04 115.754 475.992 115.924 475.898 116.08C475.807 116.235 475.684 116.36 475.528 116.455C475.377 116.545 475.206 116.591 475.017 116.591ZM479.423 116.591C479.143 116.591 478.902 116.491 478.702 116.29C478.501 116.089 478.401 115.848 478.401 115.568C478.401 115.288 478.501 115.047 478.702 114.847C478.902 114.646 479.143 114.545 479.423 114.545C479.704 114.545 479.944 114.646 480.145 114.847C480.346 115.047 480.446 115.288 480.446 115.568C480.446 115.754 480.399 115.924 480.304 116.08C480.213 116.235 480.09 116.36 479.935 116.455C479.783 116.545 479.613 116.591 479.423 116.591Z" fill="#999999"/>
<path d="M776 107.8C776 108.044 775.889 108.255 775.666 108.433L767.791 114.733C767.568 114.911 767.305 115 767 115C766.695 115 766.432 114.911 766.209 114.733L758.334 108.433C758.111 108.255 758 108.044 758 107.8C758 107.556 758.111 107.345 758.334 107.167C758.557 106.989 758.82 106.9 759.125 106.9H774.875C775.18 106.9 775.443 106.989 775.666 107.167C775.889 107.345 776 107.556 776 107.8Z" fill="#676A6C"/>
<path d="M429.632 70.2H430.768V71.832C430.768 73.24 430.368 75 428.592 76.168C428.432 75.928 428.016 75.464 427.776 75.304C429.376 74.296 429.632 72.92 429.632 71.816V70.2ZM430.224 70.2H434.32V71.32H430.224V70.2ZM433.776 70.2H434.928V74.056C434.928 74.408 434.976 74.456 435.264 74.456C435.392 74.456 435.968 74.456 436.144 74.456C436.432 74.456 436.496 74.232 436.528 72.568C436.768 72.776 437.232 72.936 437.552 73.032C437.456 74.984 437.168 75.496 436.272 75.496C436.048 75.496 435.28 75.496 435.072 75.496C434.064 75.496 433.776 75.192 433.776 74.056V70.2ZM428.672 76.488H435.504V77.592H428.672V76.488ZM435.152 76.488H435.392L435.616 76.44L436.384 76.776C435.072 81.032 431.696 83.304 427.872 84.312C427.76 83.992 427.472 83.48 427.248 83.224C430.816 82.424 434.032 80.296 435.152 76.696V76.488ZM430.288 77.528C431.472 80.424 434 82.456 437.584 83.208C437.328 83.464 436.976 83.96 436.8 84.28C433.104 83.384 430.56 81.176 429.216 77.864L430.288 77.528ZM422.512 78.152C423.856 77.8 425.888 77.176 427.872 76.568L428.016 77.608C426.224 78.248 424.352 78.904 422.912 79.4L422.512 78.152ZM422.72 72.728H428.032V73.848H422.72V72.728ZM425.056 69.576H426.224V82.872C426.224 83.544 426.064 83.88 425.648 84.056C425.232 84.248 424.592 84.28 423.52 84.264C423.472 83.976 423.296 83.48 423.152 83.176C423.872 83.192 424.544 83.192 424.752 83.176C424.96 83.176 425.056 83.112 425.056 82.872V69.576ZM447.552 75.064H448.768V84.296H447.552V75.064ZM442.88 77.416H453.264V78.52H442.88V77.416ZM449.104 77.848C450.064 79.768 451.936 81.704 453.68 82.664C453.424 82.888 453.04 83.32 452.832 83.608C451.088 82.488 449.232 80.328 448.176 78.2L449.104 77.848ZM447.28 77.768L448.224 78.12C447.152 80.328 445.168 82.472 443.264 83.576C443.056 83.288 442.688 82.872 442.432 82.632C444.304 81.704 446.272 79.72 447.28 77.768ZM445.216 71.4V74.328H451.184V71.4H445.216ZM444.08 70.328H452.368V75.416H444.08V70.328ZM442.416 69.608L443.552 69.96C442.464 72.664 440.784 75.352 439.04 77.128C438.912 76.856 438.576 76.232 438.352 75.944C439.952 74.424 441.488 72.04 442.416 69.608ZM440.752 73.736L441.888 72.6L441.904 72.616V84.248H440.752V73.736ZM461.328 74.68H462.56V84.28H461.328V74.68ZM457.696 77.384V78.776H466.4V77.384H457.696ZM457.696 75.096V76.456H466.4V75.096H457.696ZM456.528 74.12H467.616V79.736H456.528V74.12ZM454.912 80.968H469.104V82.024H454.912V80.968ZM457.184 71V72.52H460.256V71H457.184ZM456.096 70.2H461.376V73.32H456.096V70.2ZM463.76 71V72.52H466.864V71H463.76ZM462.672 70.2H468V73.32H462.672V70.2ZM479.424 69.752H480.624V73.4H479.424V69.752ZM475.248 72.712H485.024V73.864H475.248V72.712ZM476.576 75.112L477.648 74.936C478.256 77.064 478.816 79.8 478.944 81.384L477.76 81.64C477.648 80.04 477.152 77.256 476.576 75.112ZM482.416 74.792L483.696 75.016C483.104 77.576 482.176 80.856 481.424 82.84L480.352 82.584C481.104 80.568 481.984 77.176 482.416 74.792ZM474.848 82.392H485.424V83.544H474.848V82.392ZM474.416 69.608L475.552 69.976C474.464 72.664 472.752 75.352 470.992 77.112C470.864 76.84 470.528 76.2 470.304 75.912C471.92 74.408 473.488 72.024 474.416 69.608ZM472.752 73.736L473.888 72.6L473.904 72.616V84.248H472.752V73.736Z" fill="#676A6C"/>
<path d="M489.455 77.9091L489.545 75.4091L487.432 76.75L486.886 75.7955L489.114 74.6364L486.886 73.4773L487.432 72.5227L489.545 73.8636L489.455 71.3636H490.545L490.455 73.8636L492.568 72.5227L493.114 73.4773L490.886 74.6364L493.114 75.7955L492.568 76.75L490.455 75.4091L490.545 77.9091H489.455Z" fill="#F14C41"/>
<rect x="33.5" y="329.409" width="757" height="77.0907" rx="7.5" fill="white" stroke="#999999"/>
<path d="M40.52 307.704H41.656V311.448H40.52V307.704ZM44.648 307.704H45.8V311.448H44.648V307.704ZM43.576 314.584H44.568V322.2H43.576V314.584ZM37.928 309.064H48.312V310.12H37.928V309.064ZM40.888 316.552H47.256V317.416H40.888V316.552ZM40.888 318.792H47.256V319.64H40.888V318.792ZM38.728 312.008H48.376V313.064H38.728V312.008ZM38.2 312.008H39.32V315.464C39.32 317.464 39.096 320.344 37.832 322.28C37.656 322.072 37.192 321.688 36.936 321.544C38.088 319.752 38.2 317.256 38.2 315.448V312.008ZM40.28 314.248H47.416V315.16H41.32V322.28H40.28V314.248ZM46.92 314.248H47.976V321.112C47.976 321.656 47.88 321.944 47.496 322.12C47.112 322.28 46.504 322.296 45.56 322.296C45.512 322.024 45.4 321.624 45.256 321.352C45.944 321.368 46.504 321.368 46.68 321.352C46.872 321.336 46.92 321.288 46.92 321.112V314.248ZM36.712 307.656L37.832 307.96C36.92 310.728 35.496 313.544 33.912 315.416C33.8 315.128 33.48 314.488 33.272 314.184C34.68 312.584 35.944 310.12 36.712 307.656ZM35.432 311.576L36.536 310.472L36.568 310.504V322.28H35.432V311.576ZM50.632 308.152H54.84V309.112H50.632V308.152ZM50.472 312.472H54.984V313.432H50.472V312.472ZM50.472 314.616H54.984V315.576H50.472V314.616ZM49.64 310.264H55.832V311.272H49.64V310.264ZM56.056 310.728H64.056V311.864H56.056V310.728ZM55.592 320.648H64.36V321.784H55.592V320.648ZM56.328 315.448H63.816V316.568H56.328V315.448ZM50.984 316.76H55.112V321.256H50.984V320.312H53.976V317.704H50.984V316.76ZM50.376 316.76H51.48V322.04H50.376V316.76ZM59.368 307.608H60.568V311.272H59.368V307.608ZM59.368 311.112H60.568V321.24H59.368V311.112ZM66.7045 315.182C66.7045 313.75 66.8902 312.434 67.2614 311.233C67.6364 310.028 68.1705 308.92 68.8636 307.909H70.0455C69.7727 308.284 69.517 308.746 69.2784 309.295C69.0436 309.841 68.8371 310.441 68.6591 311.097C68.4811 311.748 68.3409 312.422 68.2386 313.119C68.1402 313.816 68.0909 314.504 68.0909 315.182C68.0909 316.083 68.178 316.998 68.3523 317.926C68.5265 318.854 68.7614 319.716 69.0568 320.511C69.3523 321.307 69.6818 321.955 70.0455 322.455H68.8636C68.1705 321.443 67.6364 320.337 67.2614 319.136C66.8902 317.932 66.7045 316.614 66.7045 315.182ZM75.7969 321.159C74.9408 321.159 74.2116 320.926 73.6094 320.46C73.0071 319.991 72.5469 319.311 72.2287 318.42C71.9105 317.527 71.7514 316.447 71.7514 315.182C71.7514 313.924 71.9105 312.85 72.2287 311.96C72.5507 311.066 73.0128 310.384 73.6151 309.915C74.2211 309.441 74.9484 309.205 75.7969 309.205C76.6454 309.205 77.3707 309.441 77.973 309.915C78.5791 310.384 79.0412 311.066 79.3594 311.96C79.6813 312.85 79.8423 313.924 79.8423 315.182C79.8423 316.447 79.6832 317.527 79.3651 318.42C79.0469 319.311 78.5866 319.991 77.9844 320.46C77.3821 320.926 76.6529 321.159 75.7969 321.159ZM75.7969 319.909C76.6454 319.909 77.3045 319.5 77.7741 318.682C78.2438 317.864 78.4787 316.697 78.4787 315.182C78.4787 314.174 78.3707 313.316 78.1548 312.608C77.9427 311.9 77.6359 311.36 77.2344 310.989C76.8366 310.617 76.3575 310.432 75.7969 310.432C74.956 310.432 74.2988 310.847 73.8253 311.676C73.3518 312.502 73.1151 313.67 73.1151 315.182C73.1151 316.189 73.2211 317.045 73.4332 317.75C73.6454 318.455 73.9503 318.991 74.348 319.358C74.7495 319.725 75.2325 319.909 75.7969 319.909ZM86.1378 308.818L82.3878 322.75H81.1605L84.9105 308.818H86.1378ZM91.3409 321.159C90.6742 321.159 90.0739 321.027 89.5398 320.761C89.0057 320.496 88.5777 320.133 88.2557 319.67C87.9337 319.208 87.7576 318.682 87.7273 318.091H89.0909C89.1439 318.617 89.3826 319.053 89.8068 319.398C90.2348 319.739 90.7462 319.909 91.3409 319.909C91.8182 319.909 92.2424 319.797 92.6136 319.574C92.9886 319.35 93.2822 319.044 93.4943 318.653C93.7102 318.259 93.8182 317.814 93.8182 317.318C93.8182 316.811 93.7064 316.358 93.483 315.96C93.2633 315.559 92.9602 315.242 92.5739 315.011C92.1875 314.78 91.7462 314.663 91.25 314.659C90.8939 314.655 90.5284 314.71 90.1534 314.824C89.7784 314.934 89.4697 315.076 89.2273 315.25L87.9091 315.091L88.6136 309.364H94.6591V310.614H89.7955L89.3864 314.045H89.4545C89.6932 313.856 89.9924 313.699 90.3523 313.574C90.7121 313.449 91.0871 313.386 91.4773 313.386C92.1894 313.386 92.8239 313.557 93.3807 313.898C93.9413 314.235 94.3807 314.697 94.6989 315.284C95.0208 315.871 95.1818 316.542 95.1818 317.295C95.1818 318.038 95.0152 318.701 94.6818 319.284C94.3523 319.864 93.8977 320.322 93.3182 320.659C92.7386 320.992 92.0795 321.159 91.3409 321.159ZM101.234 321.159C100.378 321.159 99.6491 320.926 99.0469 320.46C98.4446 319.991 97.9844 319.311 97.6662 318.42C97.348 317.527 97.1889 316.447 97.1889 315.182C97.1889 313.924 97.348 312.85 97.6662 311.96C97.9882 311.066 98.4503 310.384 99.0526 309.915C99.6586 309.441 100.386 309.205 101.234 309.205C102.083 309.205 102.808 309.441 103.411 309.915C104.017 310.384 104.479 311.066 104.797 311.96C105.119 312.85 105.28 313.924 105.28 315.182C105.28 316.447 105.121 317.527 104.803 318.42C104.484 319.311 104.024 319.991 103.422 320.46C102.82 320.926 102.09 321.159 101.234 321.159ZM101.234 319.909C102.083 319.909 102.742 319.5 103.212 318.682C103.681 317.864 103.916 316.697 103.916 315.182C103.916 314.174 103.808 313.316 103.592 312.608C103.38 311.9 103.073 311.36 102.672 310.989C102.274 310.617 101.795 310.432 101.234 310.432C100.393 310.432 99.7363 310.847 99.2628 311.676C98.7893 312.502 98.5526 313.67 98.5526 315.182C98.5526 316.189 98.6586 317.045 98.8707 317.75C99.0829 318.455 99.3878 318.991 99.7855 319.358C100.187 319.725 100.67 319.909 101.234 319.909ZM111.234 321.159C110.378 321.159 109.649 320.926 109.047 320.46C108.445 319.991 107.984 319.311 107.666 318.42C107.348 317.527 107.189 316.447 107.189 315.182C107.189 313.924 107.348 312.85 107.666 311.96C107.988 311.066 108.45 310.384 109.053 309.915C109.659 309.441 110.386 309.205 111.234 309.205C112.083 309.205 112.808 309.441 113.411 309.915C114.017 310.384 114.479 311.066 114.797 311.96C115.119 312.85 115.28 313.924 115.28 315.182C115.28 316.447 115.121 317.527 114.803 318.42C114.484 319.311 114.024 319.991 113.422 320.46C112.82 320.926 112.09 321.159 111.234 321.159ZM111.234 319.909C112.083 319.909 112.742 319.5 113.212 318.682C113.681 317.864 113.916 316.697 113.916 315.182C113.916 314.174 113.808 313.316 113.592 312.608C113.38 311.9 113.073 311.36 112.672 310.989C112.274 310.617 111.795 310.432 111.234 310.432C110.393 310.432 109.736 310.847 109.263 311.676C108.789 312.502 108.553 313.67 108.553 315.182C108.553 316.189 108.659 317.045 108.871 317.75C109.083 318.455 109.388 318.991 109.786 319.358C110.187 319.725 110.67 319.909 111.234 319.909ZM120.325 315.182C120.325 316.614 120.138 317.932 119.763 319.136C119.392 320.337 118.859 321.443 118.166 322.455H116.984C117.257 322.08 117.511 321.617 117.746 321.068C117.984 320.523 118.193 319.924 118.371 319.273C118.549 318.617 118.687 317.941 118.786 317.244C118.888 316.544 118.939 315.856 118.939 315.182C118.939 314.28 118.852 313.366 118.678 312.438C118.503 311.509 118.268 310.648 117.973 309.852C117.678 309.057 117.348 308.409 116.984 307.909H118.166C118.859 308.92 119.392 310.028 119.763 311.233C120.138 312.434 120.325 313.75 120.325 315.182Z" fill="#676A6C"/>
<rect x="282.5" y="252.7" width="119" height="33.6" rx="7.5" fill="white"/>
<rect x="282.5" y="252.7" width="119" height="33.6" rx="7.5" stroke="#02B2E1"/>
<path d="M318.648 263.058L320.426 263.296C319.908 264.178 319.306 265.032 318.83 265.606L317.416 265.326C317.864 264.682 318.382 263.744 318.648 263.058ZM321.938 263.912L323.184 263.324C324.206 264.024 325.536 265.088 326.208 265.83L324.864 266.488C324.262 265.774 322.988 264.654 321.938 263.912ZM317.822 267.216L318.998 266.88C319.348 267.482 319.726 268.266 319.852 268.798L318.62 269.162C318.508 268.644 318.172 267.818 317.822 267.216ZM315.61 264.78C317.85 264.724 321.322 264.598 324.556 264.472L324.5 265.718C321.336 265.886 317.962 266.04 315.694 266.124L315.61 264.78ZM316.408 266.236L317.92 266.586C317.43 267.412 316.912 268.308 316.492 268.882L315.414 268.546C315.778 267.902 316.198 266.922 316.408 266.236ZM314.616 268.196C315.68 268.14 317.178 268.014 318.69 267.874L318.718 268.98C317.304 269.134 315.89 269.288 314.756 269.4L314.616 268.196ZM324.948 267.286L326.124 266.81C326.684 267.468 327.258 268.378 327.496 269.008L326.25 269.54C326.04 268.924 325.494 267.986 324.948 267.286ZM323.268 266.166L324.808 266.516C324.388 267.314 323.954 268.21 323.59 268.77L322.484 268.434C322.778 267.79 323.114 266.852 323.268 266.166ZM322.274 268.084C323.366 268.042 324.92 267.958 326.502 267.86L326.516 268.854C325.074 269.008 323.632 269.162 322.456 269.274L322.274 268.084ZM321.252 269.582L322.442 270.184C321.266 271.038 319.474 271.738 318.018 272.158C317.808 271.864 317.444 271.43 317.122 271.15C318.494 270.842 320.3 270.226 321.252 269.582ZM322.736 270.856L323.996 271.486C322.47 272.76 320.02 273.628 317.71 274.118C317.528 273.768 317.192 273.264 316.87 272.928C319.026 272.578 321.476 271.85 322.736 270.856ZM324.262 272.256L325.634 272.9C323.772 274.86 320.538 275.798 316.926 276.274C316.786 275.868 316.478 275.294 316.17 274.916C319.544 274.608 322.708 273.838 324.262 272.256ZM320.93 268.21C319.768 269.722 317.43 271.192 315.064 272.004C314.924 271.654 314.588 271.122 314.322 270.8C316.8 270.058 319.026 268.504 320.132 266.95H321.602C323.128 268.84 325.452 270.1 327.72 270.632C327.398 270.996 327.104 271.514 326.894 271.906C324.71 271.22 322.218 269.82 320.93 268.21ZM328.826 267.048H341.076V268.462H328.826V267.048ZM329.904 264.57H337.772V265.942H329.904V264.57ZM333.152 263.114H334.818V267.748H333.152V263.114ZM338.584 269.05L339.606 270.156C337.744 270.66 335.084 270.94 332.83 271.08C332.788 270.744 332.606 270.24 332.466 269.946C334.622 269.792 337.114 269.456 338.584 269.05ZM339.158 263.674L340.516 264.416C337.744 267.958 333.502 270.716 329.246 272.396C329.022 272.06 328.518 271.402 328.21 271.108C332.522 269.61 336.652 266.95 339.158 263.674ZM332.046 269.148L333.712 269.33C333.39 270.814 332.942 272.62 332.606 273.768L330.926 273.544C331.304 272.396 331.766 270.562 332.046 269.148ZM337.94 271.78H339.634C339.634 271.78 339.606 272.228 339.55 272.466C339.228 274.384 338.878 275.336 338.402 275.77C338.024 276.12 337.646 276.218 337.044 276.246C336.582 276.288 335.784 276.288 334.93 276.26C334.902 275.784 334.692 275.14 334.412 274.706C335.21 274.776 336.106 274.804 336.47 274.804C336.736 274.804 336.918 274.776 337.072 274.664C337.394 274.426 337.702 273.6 337.926 271.976L337.94 271.78ZM332.298 271.78H338.332V273.138H331.906L332.298 271.78ZM342.742 263.926H355.286V265.382H342.742V263.926ZM342.84 266.866H348.874V268.098H342.84V266.866ZM342.644 269.414H349.056V270.646H342.644V269.414ZM350.316 269.61H355.426V271.052H350.316V269.61ZM342.798 271.472H348.888V272.746H342.798V271.472ZM345.808 263.114H347.474V266.138H345.808V263.114ZM345.094 265.942H346.676V267.454H345.094V265.942ZM352.36 270.24H353.998V276.246H352.36V270.24ZM345.094 270.366H346.676V276.26H345.094V270.366ZM350.47 263.114H352.136V266.138H350.47V263.114ZM349.532 266.992L351.492 267.412C351.478 267.552 351.38 267.622 351.128 267.664V270.744C351.128 272.396 350.876 274.804 349.224 276.316C349.028 275.952 348.454 275.336 348.09 275.112C349.406 273.852 349.532 272.158 349.532 270.702V266.992ZM345.08 272.144L346.144 272.564C345.5 273.754 344.38 275.07 343.386 275.77C343.134 275.42 342.672 274.902 342.336 274.622C343.33 274.09 344.478 273.082 345.08 272.144ZM353.984 265.956L355.23 267.118C353.872 267.72 352.08 268.196 350.54 268.504C350.456 268.168 350.232 267.636 350.05 267.3C351.464 266.978 353.046 266.46 353.984 265.956ZM343.568 268.252L344.87 267.958C345.094 268.392 345.276 269.022 345.318 269.414L343.946 269.764C343.932 269.344 343.778 268.714 343.568 268.252ZM346.844 267.86L348.3 268.224C348.062 268.812 347.838 269.358 347.67 269.736L346.41 269.414C346.564 268.966 346.76 268.308 346.844 267.86ZM346.662 272.606C347.054 272.844 348.356 273.782 348.678 274.034L347.698 275.07C347.292 274.566 346.298 273.628 345.794 273.194L346.662 272.606ZM357.106 264.458L357.834 263.324C358.772 263.548 360.102 263.996 360.802 264.332L360.046 265.606C359.402 265.256 358.072 264.752 357.106 264.458ZM356.49 266.838C357.526 266.642 359.038 266.278 360.522 265.942L360.676 267.258C359.458 267.622 358.17 268 357.12 268.294L356.49 266.838ZM362.692 264.052H368.068V265.228H361.754L362.692 264.052ZM367.676 264.052H367.914L368.166 263.996L369.272 264.276C368.908 265.046 368.404 265.886 367.942 266.404L366.64 266.012C367.018 265.564 367.438 264.836 367.676 264.234V264.052ZM364.12 264.542H365.632C365.352 266.544 364.568 267.748 361.432 268.378C361.292 268.042 360.942 267.482 360.662 267.188C363.364 266.768 363.91 265.956 364.12 264.542ZM365.534 264.906C365.772 265.942 366.388 266.852 369.566 267.216C369.258 267.552 368.894 268.182 368.74 268.602C365.24 268.042 364.554 266.516 364.19 265.032L365.534 264.906ZM362.65 263.114L364.12 263.352C363.574 264.472 362.888 265.494 361.824 266.362C361.53 266.068 360.956 265.718 360.564 265.564C361.586 264.864 362.272 263.926 362.65 263.114ZM360.018 270.73V271.332H366.108V270.73H360.018ZM360.018 272.284V272.9H366.108V272.284H360.018ZM360.018 269.19V269.778H366.108V269.19H360.018ZM358.394 268.182H367.802V273.894H358.394V268.182ZM363.784 274.622L365.184 273.824C366.654 274.356 368.39 275.056 369.384 275.546L367.424 276.302C366.64 275.826 365.198 275.154 363.784 274.622ZM360.676 273.782L362.216 274.468C361.068 275.21 359.248 275.91 357.82 276.316C357.526 275.98 356.952 275.364 356.574 275.084C358.058 274.804 359.724 274.314 360.676 273.782Z" fill="#02B2E1"/>
<rect x="33.5" y="250.5" width="235.564" height="37" rx="7.5" fill="white"/>
<rect x="33.5" y="250.5" width="235.564" height="37" rx="7.5" stroke="#999999"/>
<path d="M34.36 234.352H47.72V237.184H46.52V235.424H35.512V237.184H34.36V234.352ZM39.832 229.392L40.84 229.776C40.344 230.432 39.816 231.104 39.384 231.568L38.648 231.216C39.048 230.72 39.56 229.92 39.832 229.392ZM36.984 232.032L37.768 231.376C38.584 231.904 39.72 232.688 40.312 233.184L39.512 233.92C38.952 233.424 37.832 232.608 36.984 232.032ZM35.24 237.392H45.608V238.496H35.24V237.392ZM37.208 228.56H38.28C38.136 231.824 37.528 233.44 34.376 234.32C34.264 234.064 33.976 233.648 33.768 233.44C36.616 232.72 37.08 231.408 37.208 228.56ZM45.272 237.392H46.488C46.488 237.392 46.472 237.744 46.456 237.936C46.232 241.04 45.992 242.304 45.512 242.784C45.208 243.104 44.872 243.216 44.328 243.248C43.832 243.28 42.872 243.28 41.864 243.216C41.832 242.864 41.688 242.384 41.464 242.08C42.488 242.16 43.48 242.176 43.848 242.176C44.168 242.176 44.36 242.144 44.52 242.016C44.856 241.712 45.08 240.512 45.272 237.568V237.392ZM39.912 235.664H41.176C40.904 240 40.056 242.256 34.52 243.28C34.424 242.976 34.12 242.464 33.88 242.208C39.032 241.344 39.672 239.504 39.912 235.664ZM35.368 229.424L36.184 229.696C35.912 230.512 35.496 231.392 34.76 231.92L34.024 231.424C34.664 230.976 35.144 230.16 35.368 229.424ZM46.824 229.392L47.864 229.792C47.336 230.464 46.712 231.2 46.248 231.696L45.48 231.328C45.928 230.8 46.52 229.952 46.824 229.392ZM43.672 231.968L44.408 231.264C45.544 231.952 47.096 232.976 47.912 233.6L47.128 234.4C46.36 233.76 44.808 232.704 43.672 231.968ZM43.896 228.56H45C44.856 231.664 44.248 233.296 41.272 234.208C41.16 233.936 40.856 233.504 40.632 233.312C43.32 232.576 43.784 231.264 43.896 228.56ZM42.024 229.392L42.84 229.664C42.584 230.512 42.168 231.36 41.384 231.872L40.632 231.376C41.32 230.944 41.8 230.16 42.024 229.392ZM58.552 234.064H59.768V243.296H58.552V234.064ZM53.88 236.416H64.264V237.52H53.88V236.416ZM60.104 236.848C61.064 238.768 62.936 240.704 64.68 241.664C64.424 241.888 64.04 242.32 63.832 242.608C62.088 241.488 60.232 239.328 59.176 237.2L60.104 236.848ZM58.28 236.768L59.224 237.12C58.152 239.328 56.168 241.472 54.264 242.576C54.056 242.288 53.688 241.872 53.432 241.632C55.304 240.704 57.272 238.72 58.28 236.768ZM56.216 230.4V233.328H62.184V230.4H56.216ZM55.08 229.328H63.368V234.416H55.08V229.328ZM53.416 228.608L54.552 228.96C53.464 231.664 51.784 234.352 50.04 236.128C49.912 235.856 49.576 235.232 49.352 234.944C50.952 233.424 52.488 231.04 53.416 228.608ZM51.752 232.736L52.888 231.6L52.904 231.616V243.248H51.752V232.736ZM72.632 229.2H73.768V230.832C73.768 232.24 73.368 234 71.592 235.168C71.432 234.928 71.016 234.464 70.776 234.304C72.376 233.296 72.632 231.92 72.632 230.816V229.2ZM73.224 229.2H77.32V230.32H73.224V229.2ZM76.776 229.2H77.928V233.056C77.928 233.408 77.976 233.456 78.264 233.456C78.392 233.456 78.968 233.456 79.144 233.456C79.432 233.456 79.496 233.232 79.528 231.568C79.768 231.776 80.232 231.936 80.552 232.032C80.456 233.984 80.168 234.496 79.272 234.496C79.048 234.496 78.28 234.496 78.072 234.496C77.064 234.496 76.776 234.192 76.776 233.056V229.2ZM71.672 235.488H78.504V236.592H71.672V235.488ZM78.152 235.488H78.392L78.616 235.44L79.384 235.776C78.072 240.032 74.696 242.304 70.872 243.312C70.76 242.992 70.472 242.48 70.248 242.224C73.816 241.424 77.032 239.296 78.152 235.696V235.488ZM73.288 236.528C74.472 239.424 77 241.456 80.584 242.208C80.328 242.464 79.976 242.96 79.8 243.28C76.104 242.384 73.56 240.176 72.216 236.864L73.288 236.528ZM65.512 237.152C66.856 236.8 68.888 236.176 70.872 235.568L71.016 236.608C69.224 237.248 67.352 237.904 65.912 238.4L65.512 237.152ZM65.72 231.728H71.032V232.848H65.72V231.728ZM68.056 228.576H69.224V241.872C69.224 242.544 69.064 242.88 68.648 243.056C68.232 243.248 67.592 243.28 66.52 243.264C66.472 242.976 66.296 242.48 66.152 242.176C66.872 242.192 67.544 242.192 67.752 242.176C67.96 242.176 68.056 242.112 68.056 241.872V228.576ZM90.552 234.064H91.768V243.296H90.552V234.064ZM85.88 236.416H96.264V237.52H85.88V236.416ZM92.104 236.848C93.064 238.768 94.936 240.704 96.68 241.664C96.424 241.888 96.04 242.32 95.832 242.608C94.088 241.488 92.232 239.328 91.176 237.2L92.104 236.848ZM90.28 236.768L91.224 237.12C90.152 239.328 88.168 241.472 86.264 242.576C86.056 242.288 85.688 241.872 85.432 241.632C87.304 240.704 89.272 238.72 90.28 236.768ZM88.216 230.4V233.328H94.184V230.4H88.216ZM87.08 229.328H95.368V234.416H87.08V229.328ZM85.416 228.608L86.552 228.96C85.464 231.664 83.784 234.352 82.04 236.128C81.912 235.856 81.576 235.232 81.352 234.944C82.952 233.424 84.488 231.04 85.416 228.608ZM83.752 232.736L84.888 231.6L84.904 231.616V243.248H83.752V232.736ZM104.936 229.728C103.608 231.632 101.032 233.84 98.328 235.28C98.184 234.992 97.848 234.576 97.592 234.32C100.36 232.928 103.016 230.56 104.248 228.544H105.48C107.176 230.864 109.944 233.008 112.456 234.128C112.168 234.416 111.88 234.832 111.672 235.184C109.192 233.904 106.408 231.712 104.936 229.728ZM100.968 233.44H109V234.528H100.968V233.44ZM98.904 236.656H111.08V237.728H98.904V236.656ZM98.168 241.712H111.848V242.768H98.168V241.712ZM104.296 233.856H105.56V242.272H104.296V233.856ZM100.232 238.544L101.208 238.144C101.864 239.024 102.52 240.24 102.744 241.04L101.704 241.488C101.496 240.688 100.872 239.44 100.232 238.544ZM108.6 238.112L109.736 238.576C109.128 239.584 108.376 240.736 107.784 241.488L106.872 241.088C107.448 240.304 108.2 239.024 108.6 238.112ZM115.848 232.592H119V233.472H115.848V232.592ZM116.616 228.592H117.752V230.784H116.616V228.592ZM115.368 238.032H119.544V242.256H115.368V241.28H118.504V238.992H115.368V238.032ZM113.896 230.016H120.488V232.336H119.448V230.992H114.888V232.336H113.896V230.016ZM114.776 238.032H115.816V243.008H114.776V238.032ZM118.792 232.592H118.984L119.176 232.544L119.864 232.864C118.824 235.84 116.456 237.872 114.024 238.928C113.88 238.672 113.592 238.272 113.368 238.064C115.656 237.2 117.928 235.248 118.792 232.784V232.592ZM116.376 231.392L117.4 231.648C116.696 233.264 115.496 234.736 114.264 235.696C114.088 235.52 113.688 235.136 113.448 234.976C114.68 234.128 115.768 232.816 116.376 231.392ZM114.904 234.528L115.576 233.808C117.288 234.96 119.56 236.608 120.68 237.68L119.96 238.512C118.872 237.44 116.632 235.712 114.904 234.528ZM120.68 229.312H128.136V230.368H120.68V229.312ZM122.376 235.28V236.816H126.568V235.28H122.376ZM122.376 237.728V239.296H126.568V237.728H122.376ZM122.376 232.848V234.384H126.568V232.848H122.376ZM121.288 231.904H127.72V240.24H121.288V231.904ZM123.832 229.824L125.128 229.984C124.872 230.912 124.552 231.936 124.296 232.608L123.272 232.4C123.48 231.68 123.72 230.576 123.832 229.824ZM122.632 240.56L123.672 241.152C122.856 241.968 121.496 242.8 120.328 243.264C120.136 243.04 119.784 242.688 119.528 242.464C120.696 242.032 122.024 241.232 122.632 240.56ZM124.984 241.2L125.864 240.624C126.808 241.2 128.008 242.08 128.616 242.688L127.672 243.328C127.096 242.736 125.928 241.808 124.984 241.2Z" fill="#676A6C"/>
<path d="M132.455 236.909L132.545 234.409L130.432 235.75L129.886 234.795L132.114 233.636L129.886 232.477L130.432 231.523L132.545 232.864L132.455 230.364H133.545L133.455 232.864L135.568 231.523L136.114 232.477L133.886 233.636L136.114 234.795L135.568 235.75L133.455 234.409L133.545 236.909H132.455Z" fill="#F14C41"/>
</g>
<defs>
<filter id="filter0_d_326_4123" x="9" y="0" width="806" height="600.429" filterUnits="userSpaceOnUse" color-interpolation-filters="sRGB">
<feFlood flood-opacity="0" result="BackgroundImageFix"/>
<feColorMatrix in="SourceAlpha" type="matrix" values="0 0 0 0 0 0 0 0 0 0 0 0 0 0 0 0 0 0 127 0" result="hardAlpha"/>
<feOffset dy="4"/>
<feGaussianBlur stdDeviation="2"/>
<feComposite in2="hardAlpha" operator="out"/>
<feColorMatrix type="matrix" values="0 0 0 0 0 0 0 0 0 0 0 0 0 0 0 0 0 0 0.25 0"/>
<feBlend mode="normal" in2="BackgroundImageFix" result="effect1_dropShadow_326_4123"/>
<feBlend mode="normal" in="SourceGraphic" in2="effect1_dropShadow_326_4123" result="shape"/>
</filter>
<clipPath id="clip0_326_4123">
<rect width="825" height="598" fill="white"/>
</clipPath>
<clipPath id="clip1_326_4123">
<path d="M13 14C13 6.268 19.268 0 27 0H797C804.732 0 811 6.26801 811 14V578.429C811 586.161 804.732 592.429 797 592.429H27C19.268 592.429 13 586.161 13 578.429V14Z" fill="white"/>
</clipPath>
<clipPath id="clip2_326_4123">
<rect width="18" height="18.1975" fill="white" transform="translate(773 17.1865)"/>
</clipPath>
<clipPath id="clip3_326_4123">
<rect width="18" height="18" fill="white" transform="translate(757 258.5)"/>
</clipPath>
</defs>
</svg>
